<svg width="10.666748" height="13.866667" viewBox="0 0 10.6667 13.8667" fill="none" xmlns="http://www.w3.org/2000/svg" xmlns:xlink="http://www.w3.org/1999/xlink">
	<desc>
			Created with Pixso.
	</desc>
	<defs/>
	<path id="Vector" d="M3.73 0C3.3 0 2.9 0.16 2.6 0.46C2.3 0.76 2.13 1.17 2.13 1.6L2.13 6.45C1.53 6.57 0.98 6.9 0.6 7.37C0.21 7.85 -0.01 8.45 0 9.06C0 10.33 0.5 11.56 1.4 12.46C2.3 13.36 3.52 13.86 4.8 13.86L5.33 13.86C6.74 13.86 8.1 13.3 9.1 12.3C10.1 11.3 10.66 9.94 10.66 8.53L10.66 7.62C10.66 7.01 10.42 6.43 9.99 6C9.56 5.57 8.98 5.33 8.37 5.33L5.33 5.33L5.33 1.6C5.33 1.17 5.16 0.76 4.86 0.46C4.56 0.16 4.15 0 3.73 0Z" fill="#FFFFFF" fill-opacity="1.000000" fill-rule="nonzero"/>
</svg>
