<svg width="16.000000" height="16.000000" viewBox="0 0 16 16" fill="none" xmlns="http://www.w3.org/2000/svg" xmlns:xlink="http://www.w3.org/1999/xlink">
	<desc>
			Created with Pixso.
	</desc>
	<defs>
		<clipPath id="clip6_128">
			<rect id="teenyicons:button-solid" width="16.000000" height="16.000000" fill="white" fill-opacity="0"/>
		</clipPath>
	</defs>
	<rect id="teenyicons:button-solid" width="16.000000" height="16.000000" fill="#FFFFFF" fill-opacity="0"/>
	<g clip-path="url(#clip6_128)">
		<path id="Vector" d="M4.26 6.4C3.41 6.4 2.6 6.06 2 5.46C1.4 4.86 1.06 4.04 1.06 3.2C1.06 2.35 1.4 1.53 2 0.93C2.6 0.33 3.41 0 4.26 0L11.73 0C12.58 0 13.39 0.33 13.99 0.93C14.59 1.53 14.93 2.35 14.93 3.2C14.93 4.04 14.59 4.86 13.99 5.46C13.39 6.06 12.58 6.4 11.73 6.4L9.6 6.4L9.6 3.73C9.6 3.02 9.31 2.34 8.81 1.84C8.31 1.34 7.64 1.06 6.93 1.06C6.22 1.06 5.54 1.34 5.04 1.84C4.54 2.34 4.26 3.02 4.26 3.73L4.26 6.4Z" fill="#FFFFFF" fill-opacity="1.000000" fill-rule="nonzero"/>
		<path id="Vector" d="M6.93 2.13C6.5 2.13 6.1 2.3 5.8 2.6C5.5 2.9 5.33 3.3 5.33 3.73L5.33 8.58C4.73 8.7 4.18 9.03 3.8 9.51C3.41 9.98 3.19 10.58 3.19 11.2C3.19 12.47 3.7 13.69 4.6 14.59C5.5 15.49 6.72 16 8 16L8.53 16C9.94 16 11.3 15.43 12.3 14.43C13.3 13.43 13.86 12.08 13.86 10.66L13.86 9.75C13.86 9.14 13.62 8.56 13.19 8.13C12.76 7.7 12.18 7.46 11.57 7.46L8.53 7.46L8.53 3.73C8.53 3.3 8.36 2.9 8.06 2.6C7.76 2.3 7.35 2.13 6.93 2.13Z" fill="#FFFFFF" fill-opacity="1.000000" fill-rule="nonzero"/>
	</g>
</svg>
