<svg viewBox="0 0 36 36" xmlns="http://www.w3.org/2000/svg" xmlns:xlink="http://www.w3.org/1999/xlink" width="36.000000" height="36.000000" fill="none" customFrame="#000000">
	<defs>
		<linearGradient id="paint_linear_9" x1="40.6154022" x2="-0.0160217285" y1="0" y2="35.9979515" gradientUnits="userSpaceOnUse">
			<stop stop-color="rgb(58.5703,118.292,143.438)" offset="0.25" stop-opacity="1" />
			<stop stop-color="rgb(61.625,197.704,255)" offset="0.536458313" stop-opacity="1" />
			<stop stop-color="rgb(58.5703,118.292,143.438)" offset="0.817708313" stop-opacity="1" />
		</linearGradient>
	</defs>
	<path id="Vector" d="M18 0C8.03077 0 0 8.03077 0 18C0 27.9692 8.03077 36 18 36C27.9692 36 36 27.9692 36 18C36 16.0615 35.7242 14.1236 35.0319 12.3236L32.8143 14.5385C33.0912 15.6462 33.2308 16.7538 33.2308 18C33.2308 26.4462 26.4462 33.2308 18 33.2308C9.55385 33.2308 2.76923 26.4462 2.76923 18C2.76923 9.55385 9.55385 2.76923 18 2.76923C22.1538 2.76923 25.7533 4.43023 28.5225 7.061L30.4615 5.122C27.2769 1.93738 22.8462 0 18 0ZM33.6472 6.23077L18 21.878L12.0451 15.9231L10.1088 18L18 25.8912L35.5835 8.30769L33.6472 6.23077Z" fill="url(#paint_linear_9)" fill-rule="nonzero" />
</svg>
