<svg viewBox="0 0 31.6797 20.46" xmlns="http://www.w3.org/2000/svg" xmlns:xlink="http://www.w3.org/1999/xlink" width="31.679688" height="20.459961" fill="none" customFrame="#000000">
	<defs>
		<linearGradient id="paint_linear_8" x1="35.7415504" x2="13.5957642" y1="-0.000122070312" y2="30.3797798" gradientUnits="userSpaceOnUse">
			<stop stop-color="rgb(58.5703,118.292,143.438)" offset="0.25" stop-opacity="1" />
			<stop stop-color="rgb(61.625,197.704,255)" offset="0.536458313" stop-opacity="1" />
			<stop stop-color="rgb(58.5703,118.292,143.438)" offset="0.817708313" stop-opacity="1" />
		</linearGradient>
	</defs>
	<path id="Vector" d="M10.23 -0.00012207C4.58794 -0.00012207 0 4.58782 0 10.2299C0 15.8719 4.58794 20.4599 10.23 20.4599C15.8721 20.4599 20.46 15.8719 20.46 10.2299C20.46 4.58782 15.8721 -0.00012207 10.23 -0.00012207ZM15.84 5.93988C16.0088 5.93988 16.1776 6.00421 16.3066 6.13324C16.5647 6.3913 16.5647 6.80846 16.3066 7.06652L8.38664 14.9865C8.25794 15.1152 8.08896 15.1799 7.92 15.1799C7.75104 15.1799 7.58206 15.1152 7.45336 14.9865L4.15336 11.6865C3.8953 11.4285 3.8953 11.0113 4.15336 10.7532C4.41142 10.4952 4.82858 10.4952 5.08664 10.7532L7.92 13.5866L15.3734 6.13324C15.5024 6.00421 15.6712 5.93988 15.84 5.93988ZM23.76 9.89988C23.585 9.89988 23.4171 9.96941 23.2933 10.0932C23.1695 10.217 23.1 10.3848 23.1 10.5599C23.1 10.7349 23.1695 10.9028 23.2933 11.0266C23.4171 11.1503 23.585 11.2199 23.76 11.2199L31.68 11.2199L31.68 9.89988L23.76 9.89988Z" fill="url(#paint_linear_8)" fill-rule="nonzero" />
</svg>
