<svg viewBox="0 0 40 50" xmlns="http://www.w3.org/2000/svg" xmlns:xlink="http://www.w3.org/1999/xlink" width="40.000000" height="50.000000" fill="none" customFrame="#000000">
	<defs>
		<linearGradient id="paint_linear_0" x1="45.1282234" x2="-8.50922775" y1="0" y2="38.0166512" gradientUnits="userSpaceOnUse">
			<stop stop-color="rgb(58.5703,118.292,143.438)" offset="0.25" stop-opacity="1" />
			<stop stop-color="rgb(61.625,197.704,255)" offset="0.536458313" stop-opacity="1" />
			<stop stop-color="rgb(58.5703,118.292,143.438)" offset="0.817708313" stop-opacity="1" />
		</linearGradient>
	</defs>
	<path id="Vector" d="M12 0C11.4492 0 11 0.449219 11 1L11 9C11 9.55078 11.4492 10 12 10L28 10C28.5547 10 29 9.55078 29 9L29 1C29 0.449219 28.5547 0 28 0L12 0ZM3 2C1.34766 2 0 3.34766 0 5L0 47C0 48.6523 1.34766 50 3 50L37 50C38.6523 50 40 48.6523 40 47L40 5C40 3.34766 38.6523 2 37 2L31 2L31 6L36 6L36 46L4 46L4 6L9 6L9 2L3 2ZM6 8L6 44L34 44L34 8L31 8L31 9C31 10.6523 29.6523 12 28 12L12 12C10.3477 12 9 10.6523 9 9L9 8L6 8ZM10 17L18 17L18 25L10 25L10 17ZM12 19L12 23L16 23L16 19L12 19ZM21 20L30 20L30 22L21 22L21 20ZM10 30L18 30L18 38L10 38L10 30ZM12 32L12 36L16 36L16 32L12 32ZM13 33L15 33L15 35L13 35L13 33ZM21 33L30 33L30 35L21 35L21 33Z" fill="url(#paint_linear_0)" fill-rule="nonzero" />
</svg>
