<svg viewBox="0 0 44 44" xmlns="http://www.w3.org/2000/svg" xmlns:xlink="http://www.w3.org/1999/xlink" width="44.000000" height="44.000000" fill="none" customFrame="#000000">
	<defs>
		<linearGradient id="paint_linear_3" x1="49.6410446" x2="-0.0195846558" y1="0" y2="43.9974976" gradientUnits="userSpaceOnUse">
			<stop stop-color="rgb(58.5703,118.292,143.438)" offset="0.25" stop-opacity="1" />
			<stop stop-color="rgb(61.625,197.704,255)" offset="0.536458313" stop-opacity="1" />
			<stop stop-color="rgb(58.5703,118.292,143.438)" offset="0.817708313" stop-opacity="1" />
		</linearGradient>
	</defs>
	<path id="Vector" d="M3 0C1.346 0 0 1.346 0 3L0 13C0 14.654 1.346 16 3 16L6 16L6 18C5.99813 18.1325 6.02261 18.2641 6.07202 18.387C6.12143 18.51 6.1948 18.6219 6.28784 18.7163C6.38088 18.8107 6.49176 18.8856 6.61401 18.9368C6.73627 18.9879 6.86748 19.0142 7 19.0142C7.13252 19.0142 7.26373 18.9879 7.38599 18.9368C7.50824 18.8856 7.61912 18.8107 7.71216 18.7163C7.8052 18.6219 7.87857 18.51 7.92798 18.387C7.97739 18.2641 8.00187 18.1325 8 18L8 16L13 16C14.654 16 16 14.654 16 13L16 9L21 9C21.1325 9.00187 21.2641 8.97739 21.387 8.92798C21.51 8.87857 21.6219 8.8052 21.7163 8.71216C21.8107 8.61912 21.8856 8.50824 21.9368 8.38599C21.9879 8.26373 22.0142 8.13253 22.0142 8C22.0142 7.86748 21.9879 7.73627 21.9368 7.61401C21.8856 7.49176 21.8107 7.38088 21.7163 7.28784C21.6219 7.1948 21.51 7.12143 21.387 7.07202C21.2641 7.02261 21.1325 6.99813 21 7L16 7L16 3C16 1.346 14.654 0 13 0L3 0ZM31 0C29.346 0 28 1.346 28 3L28 7L25 7C24.8675 6.99813 24.7359 7.02261 24.613 7.07202C24.49 7.12143 24.3781 7.1948 24.2837 7.28784C24.1893 7.38088 24.1144 7.49176 24.0632 7.61401C24.0121 7.73627 23.9858 7.86748 23.9858 8C23.9858 8.13253 24.0121 8.26373 24.0632 8.38599C24.1144 8.50824 24.1893 8.61912 24.2837 8.71216C24.3781 8.8052 24.49 8.87857 24.613 8.92798C24.7359 8.97739 24.8675 9.00187 25 9L28 9L28 13C28 14.654 29.346 16 31 16L35 16L35 21C34.9981 21.1325 35.0226 21.2641 35.072 21.387C35.1214 21.51 35.1948 21.6219 35.2878 21.7163C35.3809 21.8107 35.4918 21.8856 35.614 21.9368C35.7363 21.9879 35.8675 22.0142 36 22.0142C36.1325 22.0142 36.2637 21.9879 36.386 21.9368C36.5082 21.8856 36.6191 21.8107 36.7122 21.7163C36.8052 21.6219 36.8786 21.51 36.928 21.387C36.9774 21.2641 37.0019 21.1325 37 21L37 16L41 16C42.654 16 44 14.654 44 13L44 3C44 1.346 42.654 0 41 0L31 0ZM6.98438 20.9863C6.7195 20.9905 6.46709 21.0995 6.28254 21.2896C6.09799 21.4796 5.99637 21.7351 6 22L6 28L3 28C1.346 28 0 29.346 0 31L0 41C0 42.654 1.346 44 3 44L13 44C14.654 44 16 42.654 16 41L16 37L19 37C19.1325 37.0019 19.2641 36.9774 19.387 36.928C19.51 36.8786 19.6219 36.8052 19.7163 36.7122C19.8107 36.6191 19.8856 36.5082 19.9368 36.386C19.9879 36.2637 20.0142 36.1325 20.0142 36C20.0142 35.8675 19.9879 35.7363 19.9368 35.614C19.8856 35.4918 19.8107 35.3809 19.7163 35.2878C19.6219 35.1948 19.51 35.1214 19.387 35.072C19.2641 35.0226 19.1325 34.9981 19 35L16 35L16 31C16 29.346 14.654 28 13 28L8 28L8 22C8.00183 21.8662 7.9768 21.7334 7.92638 21.6095C7.87597 21.4855 7.80119 21.373 7.70649 21.2784C7.61179 21.1839 7.49908 21.1094 7.37504 21.0592C7.25101 21.009 7.11816 20.9842 6.98438 20.9863ZM35.9844 23.9863C35.7195 23.9905 35.4671 24.0995 35.2825 24.2896C35.098 24.4796 34.9964 24.7351 35 25L35 27L31 27C29.346 27 28 28.346 28 30L28 35L23 35C22.8675 34.9981 22.7359 35.0226 22.613 35.072C22.49 35.1214 22.3781 35.1948 22.2837 35.2878C22.1893 35.3809 22.1144 35.4918 22.0632 35.614C22.0121 35.7363 21.9858 35.8675 21.9858 36C21.9858 36.1325 22.0121 36.2637 22.0632 36.386C22.1144 36.5082 22.1893 36.6191 22.2837 36.7122C22.3781 36.8052 22.49 36.8786 22.613 36.928C22.7359 36.9774 22.8675 37.0019 23 37L28 37L28 40C28 41.654 29.346 43 31 43L41 43C42.654 43 44 41.654 44 40L44 30C44 28.346 42.654 27 41 27L37 27L37 25C37.0018 24.8662 36.9768 24.7334 36.9264 24.6095C36.876 24.4855 36.8012 24.373 36.7065 24.2784C36.6118 24.1839 36.4991 24.1094 36.375 24.0592C36.251 24.009 36.1182 23.9842 35.9844 23.9863Z" fill="url(#paint_linear_3)" fill-rule="nonzero" />
</svg>
