<svg viewBox="0 0 21.7529 9.99121" xmlns="http://www.w3.org/2000/svg" xmlns:xlink="http://www.w3.org/1999/xlink" width="21.752930" height="9.991211" fill="none" customFrame="#000000">
	<path id="Arrow 1" d="M0 -0.75L21 -0.75L21 0.75L0 0.75L0 -0.75ZM19.9393 0L16.227 -3.71231C15.93 -4.0093 15.93 -4.47598 16.227 -4.77297C16.524 -5.06996 16.9907 -5.06996 17.2877 -4.77297L21.5303 -0.53033C21.8273 -0.233345 21.8273 0.233345 21.5303 0.53033L17.2877 4.77297C16.9907 5.06996 16.524 5.06996 16.227 4.77297C15.93 4.47599 15.93 4.0093 16.227 3.71231L19.9393 0Z" fill="rgb(255,255,255)" fill-rule="nonzero" transform="matrix(1,1.22465e-16,1.22465e-16,-1,0,4.99561)" />
</svg>
