<svg viewBox="0 0 9 9" xmlns="http://www.w3.org/2000/svg" xmlns:xlink="http://www.w3.org/1999/xlink" width="9.000000" height="9.000000" fill="none" customFrame="#000000">
	<path id="Vector" d="M1.875 0L1.875 1.5L2.625 1.5L2.625 0L1.875 0ZM6.375 0L6.375 1.5L7.125 1.5L7.125 0L6.375 0ZM0.375 1.125C0.168457 1.125 0 1.29346 0 1.5L0 2.625C0 2.83154 0.168457 3 0.375 3L0.375 9L8.625 9L8.625 3C8.83154 3 9 2.83154 9 2.625L9 1.5C9 1.29346 8.83154 1.125 8.625 1.125L7.5 1.125L7.5 1.875L6 1.875L6 1.125L3 1.125L3 1.875L1.5 1.875L1.5 1.125L0.375 1.125ZM1.125 3L7.875 3L7.875 8.25L1.125 8.25L1.125 3ZM1.875 3.75L1.875 4.5L2.625 4.5L2.625 3.75L1.875 3.75ZM3.375 3.75L3.375 4.5L4.125 4.5L4.125 3.75L3.375 3.75ZM4.875 3.75L4.875 4.5L5.625 4.5L5.625 3.75L4.875 3.75ZM6.375 3.75L6.375 4.5L7.125 4.5L7.125 3.75L6.375 3.75ZM1.875 5.25L1.875 6L2.625 6L2.625 5.25L1.875 5.25ZM3.375 5.25L3.375 6L4.125 6L4.125 5.25L3.375 5.25ZM4.875 5.25L4.875 6L5.625 6L5.625 5.25L4.875 5.25ZM6.375 5.25L6.375 6L7.125 6L7.125 5.25L6.375 5.25ZM1.875 6.75L1.875 7.5L2.625 7.5L2.625 6.75L1.875 6.75ZM3.375 6.75L3.375 7.5L4.125 7.5L4.125 6.75L3.375 6.75ZM4.875 6.75L4.875 7.5L5.625 7.5L5.625 6.75L4.875 6.75ZM6.375 6.75L6.375 7.5L7.125 7.5L7.125 6.75L6.375 6.75Z" fill="rgb(255,255,255)" fill-rule="nonzero" />
</svg>
