<svg viewBox="0 0 21.876 25.8135" xmlns="http://www.w3.org/2000/svg" xmlns:xlink="http://www.w3.org/1999/xlink" width="21.875977" height="25.813477" fill="none" customFrame="#000000">
	<defs>
		<linearGradient id="paint_linear_14" x1="24.6804981" x2="-3.50251007" y1="0" y2="21.1601868" gradientUnits="userSpaceOnUse">
			<stop stop-color="rgb(58.5703,118.292,143.438)" offset="0.25" stop-opacity="1" />
			<stop stop-color="rgb(61.625,197.704,255)" offset="0.536458313" stop-opacity="1" />
			<stop stop-color="rgb(58.5703,118.292,143.438)" offset="0.817708313" stop-opacity="1" />
		</linearGradient>
	</defs>
	<path id="Vector" d="M4.2502 0L6.03145 5.84375L6.03145 9.65625L7.53145 9.65625L7.53145 5.65625L9.2502 0L7.7502 0L6.8127 3.84375L6.71895 3.84375L5.7502 0L4.2502 0ZM11.1564 2.34375C10.5549 2.34375 10.0744 2.51562 9.71895 2.84375C9.36348 3.16797 9.1877 3.60547 9.1877 4.15625L9.1877 7.84375C9.1877 8.44922 9.37129 8.95703 9.71895 9.3125C10.0705 9.67188 10.5119 9.84375 11.0939 9.84375C11.6955 9.84375 12.1877 9.66016 12.5314 9.3125C12.8752 8.96484 13.0314 8.48438 13.0314 7.875L13.0314 4.1875C13.0314 3.64453 12.8518 3.21875 12.5002 2.875C12.1525 2.52734 11.7072 2.34375 11.1564 2.34375ZM14.1564 2.53125L14.1564 8.5C14.1564 8.92578 14.2502 9.22656 14.4064 9.4375C14.5627 9.64844 14.7893 9.75 15.0939 9.75C15.34 9.75 15.5822 9.67969 15.8439 9.53125C16.1096 9.37891 16.383 9.16406 16.6252 8.875L16.6252 9.65625L17.9377 9.65625L17.9377 2.53125L16.6252 2.53125L16.6252 7.9375C16.5002 8.08984 16.3674 8.21484 16.2189 8.3125C16.0705 8.41406 15.9416 8.46875 15.8439 8.46875C15.7229 8.46875 15.6174 8.44922 15.5627 8.375C15.5041 8.30078 15.5002 8.16406 15.5002 8L15.5002 2.53125L14.1564 2.53125ZM11.0939 3.59375C11.2697 3.59375 11.426 3.625 11.5314 3.71875C11.6408 3.81641 11.6877 3.94141 11.6877 4.09375L11.6877 8C11.6877 8.19141 11.6369 8.33203 11.5314 8.4375C11.426 8.54688 11.2736 8.59375 11.0939 8.59375C10.9182 8.59375 10.7814 8.54297 10.6877 8.4375C10.59 8.33203 10.5627 8.19531 10.5627 8L10.5627 4.09375C10.5627 3.94141 10.6174 3.81641 10.7189 3.71875C10.8205 3.625 10.9338 3.59375 11.0939 3.59375ZM10.9377 11.125C8.34395 11.1211 5.80098 11.1445 3.3127 11.25C1.57441 11.25 0.156446 12.6523 0.156446 14.375C0.0509766 15.7383 -0.00371042 17.1055 0.00019558 18.4688C-0.00371042 19.832 0.0509766 21.1992 0.156446 22.5625C0.156446 24.2852 1.57441 25.6875 3.3127 25.6875C5.80098 25.7891 8.34395 25.8164 10.9377 25.8125C13.5354 25.8203 16.0783 25.7891 18.5627 25.6875C20.301 25.6875 21.7189 24.2852 21.7189 22.5625C21.8244 21.1992 21.8791 19.832 21.8752 18.4688C21.883 17.1055 21.8244 15.7383 21.7189 14.375C21.7189 12.6523 20.301 11.25 18.5627 11.25C16.0783 11.1445 13.5354 11.1211 10.9377 11.125ZM1.6877 13.3438L6.28145 13.3438C6.36348 13.3438 6.4377 13.418 6.4377 13.5L6.4377 14.9062C6.4377 14.9883 6.36348 15.0625 6.28145 15.0625L4.8752 15.0625L4.8752 23.1562C4.8752 23.2383 4.83223 23.3125 4.7502 23.3125L3.2502 23.3125C3.16816 23.3125 3.09395 23.2383 3.09395 23.1562L3.09395 15.0625L1.6877 15.0625C1.60566 15.0625 1.5627 14.9883 1.5627 14.9062L1.5627 13.5C1.5627 13.418 1.60566 13.3438 1.6877 13.3438ZM11.3439 13.3438L12.6877 13.3438C12.7697 13.3438 12.8439 13.418 12.8439 13.5L12.8439 16.2188C12.9533 16.1172 13.0705 16.0352 13.1877 15.9688C13.4143 15.8438 13.6447 15.7812 13.8752 15.7812C14.3439 15.7812 14.6877 15.9688 14.9377 16.3125C15.176 16.6445 15.3127 17.1094 15.3127 17.7188L15.3127 21.6875C15.3127 22.2266 15.1994 22.6445 14.9689 22.9375C14.7307 23.2422 14.3752 23.4062 13.9377 23.4062C13.6604 23.4062 13.4143 23.332 13.1877 23.2188C13.0666 23.1562 12.9533 23.0977 12.8439 23L12.8439 23.1562C12.8439 23.2383 12.7697 23.3125 12.6877 23.3125L11.3439 23.3125C11.2619 23.3125 11.1877 23.2383 11.1877 23.1562L11.1877 13.5C11.1877 13.418 11.2619 13.3438 11.3439 13.3438ZM18.1564 15.6875C18.8049 15.6875 19.3361 15.8906 19.6877 16.2812C20.0393 16.6719 20.2189 17.2266 20.2189 17.9375L20.2189 19.7812C20.2189 19.8633 20.1447 19.9062 20.0627 19.9062L17.6877 19.9062L17.6877 21.125C17.6877 21.5625 17.7346 21.7344 17.7814 21.8125C17.8205 21.875 17.8869 21.9688 18.0939 21.9688C18.2619 21.9688 18.3791 21.9219 18.4377 21.8438C18.465 21.8008 18.5314 21.6445 18.5314 21.125L18.5314 20.625C18.5314 20.543 18.6057 20.4688 18.6877 20.4688L20.0627 20.4688C20.1447 20.4688 20.2189 20.543 20.2189 20.625L20.2189 21.1562C20.2189 21.9258 20.0119 22.5117 19.6564 22.9062C19.301 23.3047 18.7658 23.5 18.0627 23.5C17.426 23.5 16.9299 23.3008 16.5627 22.875C16.1994 22.457 16.0002 21.8789 16.0002 21.1562L16.0002 17.9375C16.0002 17.2812 16.1916 16.7617 16.5939 16.3438C16.9963 15.9258 17.5236 15.6875 18.1564 15.6875ZM6.28145 15.875L7.59395 15.875C7.67598 15.875 7.7502 15.9492 7.7502 16.0312L7.7502 21.5C7.7502 21.6797 7.76191 21.7539 7.78145 21.7812C7.78926 21.793 7.82441 21.8438 7.9377 21.8438C7.97676 21.8438 8.0627 21.8281 8.21895 21.7188C8.34785 21.6328 8.46113 21.5273 8.5627 21.4062L8.5627 16.0312C8.5627 15.9492 8.63691 15.875 8.71895 15.875L10.0627 15.875C10.1447 15.875 10.1877 15.9492 10.1877 16.0312L10.1877 23.1562C10.1877 23.2383 10.1447 23.3125 10.0627 23.3125L8.71895 23.3125C8.63691 23.3125 8.5627 23.2383 8.5627 23.1562L8.5627 22.75C8.38691 22.9219 8.21504 23.0508 8.03145 23.1562C7.74238 23.3203 7.46895 23.4062 7.1877 23.4062C6.83223 23.4062 6.55879 23.2852 6.3752 23.0312C6.19941 22.793 6.1252 22.4531 6.1252 22L6.1252 16.0312C6.1252 15.9492 6.19941 15.875 6.28145 15.875ZM13.1877 17.2188C13.1369 17.2266 13.0861 17.2539 13.0314 17.2812C12.9689 17.3125 12.9064 17.3711 12.8439 17.4375L12.8439 21.75C12.9221 21.832 12.9885 21.9023 13.0627 21.9375C13.1447 21.9766 13.2229 22 13.3127 22C13.4807 22 13.5471 21.9297 13.5627 21.9062C13.6018 21.8555 13.6252 21.7383 13.6252 21.5L13.6252 17.8125C13.6252 17.6094 13.6057 17.4414 13.5314 17.3438C13.4572 17.2461 13.34 17.1914 13.1877 17.2188ZM18.1252 17.25C17.965 17.25 17.8479 17.2852 17.7814 17.375C17.7346 17.4414 17.6877 17.6055 17.6877 17.9375L17.6877 18.5L18.5314 18.5L18.5314 17.9375C18.5314 17.6094 18.4885 17.4492 18.4377 17.375C18.3752 17.2891 18.2775 17.25 18.1252 17.25Z" fill="url(#paint_linear_14)" fill-rule="nonzero" />
</svg>
