<svg viewBox="0 0 26 24.5283" xmlns="http://www.w3.org/2000/svg" xmlns:xlink="http://www.w3.org/1999/xlink" width="26.000000" height="24.528320" fill="none" customFrame="#000000">
	<defs>
		<linearGradient id="paint_linear_16" x1="29.3333435" x2="1.50118446" y1="0" y2="26.1377487" gradientUnits="userSpaceOnUse">
			<stop stop-color="rgb(58.5703,118.292,143.438)" offset="0.25" stop-opacity="1" />
			<stop stop-color="rgb(61.625,197.704,255)" offset="0.536458313" stop-opacity="1" />
			<stop stop-color="rgb(58.5703,118.292,143.438)" offset="0.817708313" stop-opacity="1" />
		</linearGradient>
	</defs>
	<path id="Форма 1" d="M13 0C5.82031 0 0 5.0332 0 11.2422C0 13.9775 1.13184 16.4814 3.00977 18.4297C3.04785 18.5264 4.01074 21.0605 1.1582 23.6436C1.1084 23.6914 1.06836 23.75 1.04102 23.8135C1.01367 23.8779 1 23.9473 1 24.0176C1 24.1533 1.05273 24.2832 1.14648 24.3789C1.24023 24.4746 1.36719 24.5283 1.5 24.5283C1.53613 24.5283 1.57227 24.5244 1.60742 24.5166C4.4834 24.3418 6.94336 22.8838 8.44531 21.7598C9.86426 22.2197 11.3945 22.4844 13 22.4844C20.1797 22.4844 26 17.4512 26 11.2422C26 5.0332 20.1797 0 13 0Z" fill="url(#paint_linear_16)" fill-rule="evenodd" />
	<path id="Форма 1" d="M5.35156 10.335L5.35156 14.3906L3.44824 14.3906L3.44824 10.335L2.05566 10.335L2.05566 8.72656L6.74414 8.72656L6.74414 10.335L5.35156 10.335Z" fill="url(#paint_linear_16)" fill-rule="nonzero" />
	<path id="Форма 1" d="M5.35156 10.335L5.35156 14.3906L3.44824 14.3906L3.44824 10.335L2.05566 10.335L2.05566 8.72656L6.74414 8.72656L6.74414 10.335L5.35156 10.335Z" fill="rgb(8.14583,38.3775,42.5)" fill-rule="nonzero" />
	<path id="Форма 1" d="M6.19238 14.3906L8.42383 8.72656L10.4482 8.72656L12.6562 14.3906L10.584 14.3906L10.2881 13.5586L8.48828 13.5586L8.20801 14.3906L6.19238 14.3906ZM9.86426 12.1025L9.4082 10.7021L8.94434 12.1025L9.86426 12.1025Z" fill="url(#paint_linear_16)" fill-rule="nonzero" />
	<path id="Форма 1" d="M6.19238 14.3906L8.42383 8.72656L10.4482 8.72656L12.6562 14.3906L10.584 14.3906L10.2881 13.5586L8.48828 13.5586L8.20801 14.3906L6.19238 14.3906ZM9.86426 12.1025L9.4082 10.7021L8.94434 12.1025L9.86426 12.1025Z" fill="rgb(8.14583,38.3775,42.5)" fill-rule="nonzero" />
	<path id="Форма 1" d="M13.0596 14.3906L13.0596 8.72656L14.9795 8.72656L14.9795 12.7588L16.8594 12.7588L16.8594 14.3906L13.0596 14.3906Z" fill="url(#paint_linear_16)" fill-rule="nonzero" />
	<path id="Форма 1" d="M13.0596 14.3906L13.0596 8.72656L14.9795 8.72656L14.9795 12.7588L16.8594 12.7588L16.8594 14.3906L13.0596 14.3906Z" fill="rgb(8.14583,38.3775,42.5)" fill-rule="nonzero" />
	<path id="Форма 1" d="M20.834 14.3906L19.3223 12.1348L19.3057 12.1348L19.3057 14.3906L17.4502 14.3906L17.4502 8.72656L19.2979 8.72656L19.2979 10.8145L19.3135 10.8145L20.8262 8.72656L23.0654 8.72656L20.9375 11.3184L23.1699 14.3906L20.834 14.3906Z" fill="url(#paint_linear_16)" fill-rule="nonzero" />
	<path id="Форма 1" d="M20.834 14.3906L19.3223 12.1348L19.3057 12.1348L19.3057 14.3906L17.4502 14.3906L17.4502 8.72656L19.2979 8.72656L19.2979 10.8145L19.3135 10.8145L20.8262 8.72656L23.0654 8.72656L20.9375 11.3184L23.1699 14.3906L20.834 14.3906Z" fill="rgb(8.14583,38.3775,42.5)" fill-rule="nonzero" />
</svg>
