<svg viewBox="0 0 22.0088 22.0116" xmlns="http://www.w3.org/2000/svg" xmlns:xlink="http://www.w3.org/1999/xlink" width="22.008789" height="22.011566" fill="none" customFrame="#000000">
	<defs>
		<linearGradient id="paint_linear_0" x1="11.0054016" x2="11.0054016" y1="-6.73909524e-16" y2="22.0115547" gradientUnits="userSpaceOnUse">
			<stop stop-color="rgb(74,188,236)" offset="0" stop-opacity="1" />
			<stop stop-color="rgb(74,138.8,236)" offset="1" stop-opacity="1" />
		</linearGradient>
	</defs>
	<path id="Vector" d="M4.42149 0.00510654C4.03672 -0.0261435 3.60899 0.085185 3.21446 0.362529C2.8668 0.604716 2.1168 1.20042 1.41563 1.87425C1.06602 2.21019 0.732034 2.55979 0.474221 2.90354C0.214455 3.24729 -0.012107 3.56175 0.00156499 4.01878C0.015237 4.42894 0.0562526 5.64183 0.9293 7.5012C1.80235 9.35862 3.49571 11.9075 6.79844 15.2121C10.1031 18.5168 12.652 20.2102 14.5094 21.0832C16.3668 21.9563 17.5816 21.9973 17.9918 22.011C18.4469 22.0246 18.7613 21.7981 19.1051 21.5383C19.4488 21.2785 19.7984 20.9465 20.1344 20.5969C20.8063 19.8957 21.402 19.1457 21.6441 18.7981C22.1969 18.011 22.1051 17.0813 21.4898 16.6496C21.1031 16.3782 17.5465 14.011 17.0113 13.6828C16.4684 13.3508 15.8434 13.5012 15.2848 13.7961C14.8453 14.0285 13.6559 14.7102 13.316 14.9055C13.0602 14.7434 12.0895 14.0969 10.0016 12.009C7.91172 9.92112 7.26719 8.95042 7.10508 8.69456C7.30039 8.35472 7.98008 7.17112 8.21446 6.72386C8.50742 6.16722 8.67149 5.53636 8.32188 4.98948C8.17539 4.75706 7.50938 3.74339 6.8375 2.72581C6.16367 1.70823 5.525 0.743388 5.35899 0.512919L5.35899 0.510966C5.14219 0.212138 4.8043 0.0363565 4.42149 0.00510654ZM4.32969 1.02659C4.46641 1.04417 4.54844 1.09886 4.54844 1.09886C4.62852 1.21018 5.32969 2.26097 6.00156 3.27659C6.67344 4.29417 7.35899 5.33714 7.47813 5.52659C7.49766 5.55589 7.525 5.88792 7.32969 6.25706L7.32969 6.25901C7.10899 6.67893 6.07969 8.47776 6.07969 8.47776L5.93711 8.72972L6.0836 8.97972C6.0836 8.97972 6.85117 10.2746 9.29258 12.716C11.7359 15.1575 13.0309 15.927 13.0309 15.927L13.2809 16.0735L13.5328 15.9309C13.5328 15.9309 15.3277 14.9035 15.7516 14.6809C16.1207 14.4875 16.4527 14.5129 16.4918 14.5364C16.8375 14.7492 20.6793 17.302 20.9156 17.468C20.9234 17.4739 21.1324 17.7903 20.8277 18.2239L20.8258 18.2239C20.6422 18.4875 20.0406 19.2512 19.4137 19.9035C19.0992 20.2297 18.777 20.5344 18.5035 20.7395C18.2301 20.9446 17.9859 21.009 18.025 21.011C17.5992 20.9973 16.6598 20.9875 14.9352 20.177C13.2105 19.3684 10.7496 17.7492 7.50547 14.5032C4.26328 11.261 2.64414 8.80003 1.8336 7.07347C1.025 5.34886 1.01524 4.4094 1.00156 3.98558C1.00352 4.02464 1.06797 3.77854 1.27305 3.50511C1.47813 3.23167 1.78086 2.90745 2.10703 2.593C2.76133 1.96604 3.52305 1.36448 3.78672 1.18089L3.78672 1.18284C4.00352 1.0305 4.19297 1.01097 4.32969 1.02659Z" fill="url(#paint_linear_0)" fill-rule="nonzero" />
</svg>
