<svg viewBox="0 0 40 37.6" xmlns="http://www.w3.org/2000/svg" xmlns:xlink="http://www.w3.org/1999/xlink" width="40.000000" height="37.599991" fill="none" customFrame="#000000">
	<path id="Vector" d="M20 0C13.1438 0 7.39375 4.825 5.95 11.25C6.09688 11.2344 6.25 11.2 6.4 11.2C6.80938 11.2 7.20312 11.2844 7.575 11.4C8.93125 5.79062 13.9781 1.6 20 1.6C26.0188 1.6 31.0688 5.79062 32.425 11.4C32.7969 11.2844 33.1875 11.2 33.6 11.2C33.75 11.2 33.9031 11.2344 34.05 11.25C32.6063 4.825 26.8531 0 20 0ZM6.4 12.8C5.07812 12.8 4 13.8781 4 15.2L4 27.2C4 28.5219 5.07812 29.6 6.4 29.6C7.72188 29.6 8.8 28.5219 8.8 27.2L8.8 15.2C8.8 13.8781 7.72188 12.8 6.4 12.8ZM33.6 12.8C32.2781 12.8 31.2 13.8781 31.2 15.2L31.2 27.2C31.2 28.5219 32.2781 29.6 33.6 29.6C34.9219 29.6 36 28.5219 36 27.2L36 15.2C36 13.8781 34.9219 12.8 33.6 12.8ZM2.4 15.3C0.95625 16.4594 0 18.6344 0 21.2C0 23.7656 0.95625 25.9406 2.4 27.1L2.4 15.3ZM37.6 15.3L37.6 27.1C39.0438 25.9406 40 23.7656 40 21.2C40 18.6344 39.0438 16.4594 37.6 15.3ZM32.475 31.025C31.7688 33.1969 29.9344 34.4 27.2 34.4L26.325 34.4C26.3781 34.6594 26.4 34.925 26.4 35.2C26.4 35.475 26.3781 35.7406 26.325 36L27.2 36C30.7938 36 33.2813 34.1937 34.1 31.15C33.9313 31.1719 33.7719 31.2 33.6 31.2C33.2063 31.2 32.8344 31.1312 32.475 31.025ZM18.4 32.8C17.0781 32.8 16 33.8781 16 35.2C16 36.5219 17.0781 37.6 18.4 37.6L22.4 37.6C23.7219 37.6 24.8 36.5219 24.8 35.2C24.8 33.8781 23.7219 32.8 22.4 32.8L18.4 32.8Z" fill="rgb(255,255,255)" fill-rule="nonzero" />
</svg>
