<svg viewBox="0 0 27 27" xmlns="http://www.w3.org/2000/svg" xmlns:xlink="http://www.w3.org/1999/xlink" width="27.000000" height="27.000000" fill="none" customFrame="#000000">
	<path id="Форма 6" d="M0 13.5C0 6.04395 6.04395 0 13.5 0C20.9561 0 27 6.04395 27 13.5C27 20.9561 20.9561 27 13.5 27C6.04395 27 0 20.9561 0 13.5Z" fill="rgb(74,188,236)" fill-rule="evenodd" />
	<path id="Форма 6" d="M16.623 15.2432C16.623 16.3818 16.249 17.2593 15.5029 17.875C14.7559 18.4819 13.8555 18.7852 12.8008 18.7852C11.8857 18.7852 11.0879 18.561 10.4062 18.1133C9.72559 17.6558 9.26758 17.0396 9.03418 16.2651L11.1768 15.6069C11.2793 15.9619 11.4756 16.251 11.7646 16.4751C12.0635 16.6899 12.3994 16.7969 12.7725 16.7969C13.1924 16.7969 13.543 16.6709 13.8223 16.4189C14.1123 16.167 14.2568 15.8125 14.2568 15.355C14.2568 14.8135 14.0605 14.4263 13.6689 14.1929C13.2764 13.9595 12.7959 13.8433 12.2266 13.8433C11.415 13.8433 10.6074 13.9878 9.80469 14.2769L10.043 8.60693L16.1182 8.60693L16.1182 10.623L12.1289 10.623L12.0449 12.1909C12.3154 12.1255 12.6465 12.0933 13.0391 12.0933C14.084 12.0933 14.9424 12.3682 15.6143 12.9189C16.2861 13.4604 16.623 14.2349 16.623 15.2432Z" fill="rgb(74,188,236)" fill-rule="nonzero" />
	<path id="Форма 6" d="M16.623 15.2432C16.623 16.3818 16.249 17.2593 15.5029 17.875C14.7559 18.4819 13.8555 18.7852 12.8008 18.7852C11.8857 18.7852 11.0879 18.561 10.4062 18.1133C9.72559 17.6558 9.26758 17.0396 9.03418 16.2651L11.1768 15.6069C11.2793 15.9619 11.4756 16.251 11.7646 16.4751C12.0635 16.6899 12.3994 16.7969 12.7725 16.7969C13.1924 16.7969 13.543 16.6709 13.8223 16.4189C14.1123 16.167 14.2568 15.8125 14.2568 15.355C14.2568 14.8135 14.0605 14.4263 13.6689 14.1929C13.2764 13.9595 12.7959 13.8433 12.2266 13.8433C11.415 13.8433 10.6074 13.9878 9.80469 14.2769L10.043 8.60693L16.1182 8.60693L16.1182 10.623L12.1289 10.623L12.0449 12.1909C12.3154 12.1255 12.6465 12.0933 13.0391 12.0933C14.084 12.0933 14.9424 12.3682 15.6143 12.9189C16.2861 13.4604 16.623 14.2349 16.623 15.2432Z" fill="rgb(8.14583,38.3775,42.5)" fill-rule="nonzero" />
</svg>
