<svg viewBox="0 0 27 27" xmlns="http://www.w3.org/2000/svg" xmlns:xlink="http://www.w3.org/1999/xlink" width="27.000000" height="27.000000" fill="none" customFrame="#000000">
	<path id="Форма 6" d="M0 13.5C0 6.04395 6.04395 0 13.5 0C20.9561 0 27 6.04395 27 13.5C27 20.9561 20.9561 27 13.5 27C6.04395 27 0 20.9561 0 13.5Z" fill="rgb(74,188,236)" fill-rule="evenodd" />
	<path id="Форма 6" d="M14.7891 18.519L12.4365 18.519L12.4365 11.2393L10.5889 12.667L9.37109 11.001L12.6328 8.60693L14.7891 8.60693L14.7891 18.519Z" fill="rgb(74,188,236)" fill-rule="nonzero" />
	<path id="Форма 6" d="M14.7891 18.519L12.4365 18.519L12.4365 11.2393L10.5889 12.667L9.37109 11.001L12.6328 8.60693L14.7891 8.60693L14.7891 18.519Z" fill="rgb(8.14583,38.3775,42.5)" fill-rule="nonzero" />
</svg>
