<svg viewBox="0 0 27 27" xmlns="http://www.w3.org/2000/svg" xmlns:xlink="http://www.w3.org/1999/xlink" width="27.000000" height="27.000000" fill="none" customFrame="#000000">
	<path id="Форма 6" d="M0 13.5C0 6.04395 6.04395 0 13.5 0C20.9561 0 27 6.04395 27 13.5C27 20.9561 20.9561 27 13.5 27C6.04395 27 0 20.9561 0 13.5Z" fill="rgb(74,188,236)" fill-rule="evenodd" />
	<path id="Форма 6" d="M16.6367 15.6353C16.6367 16.3257 16.4453 16.9185 16.0625 17.4131C15.6895 17.8984 15.2275 18.2485 14.6768 18.4629C14.126 18.6777 13.5332 18.7852 12.8984 18.7852C11.9375 18.7852 11.0977 18.5659 10.3789 18.127C9.66016 17.6885 9.1748 17.0303 8.92285 16.1528L11.1064 15.5791C11.2002 15.9243 11.3955 16.2183 11.6943 16.4609C11.9932 16.6943 12.3574 16.811 12.7861 16.811C13.1689 16.811 13.5049 16.7085 13.7949 16.5029C14.084 16.2979 14.2285 15.9805 14.2285 15.5513C14.2285 15.0845 14.0322 14.7529 13.6406 14.5571C13.2578 14.3516 12.7822 14.249 12.2129 14.249L11.583 14.249L11.583 12.5269L12.2686 12.5269C13.4258 12.5269 14.0049 12.1353 14.0049 11.3511C14.0049 11.0151 13.8828 10.749 13.6406 10.5532C13.3975 10.3569 13.1035 10.2593 12.7588 10.2593C12.4229 10.2593 12.1289 10.3618 11.877 10.5669C11.6338 10.7632 11.4756 11.0288 11.4004 11.3652L9.2168 10.8608C9.4502 10.0586 9.90723 9.4375 10.5889 8.99902C11.2695 8.56055 12.0449 8.34082 12.9131 8.34082C13.8643 8.34082 14.6816 8.5835 15.3623 9.06885C16.0537 9.5542 16.3984 10.2451 16.3984 11.1411C16.3984 11.6729 16.2441 12.1353 15.9365 12.5269C15.6289 12.9097 15.2275 13.1665 14.7324 13.2969L14.7324 13.3389C15.293 13.4697 15.75 13.7495 16.1045 14.1792C16.459 14.5991 16.6367 15.0845 16.6367 15.6353Z" fill="rgb(74,188,236)" fill-rule="nonzero" />
	<path id="Форма 6" d="M16.6367 15.6353C16.6367 16.3257 16.4453 16.9185 16.0625 17.4131C15.6895 17.8984 15.2275 18.2485 14.6768 18.4629C14.126 18.6777 13.5332 18.7852 12.8984 18.7852C11.9375 18.7852 11.0977 18.5659 10.3789 18.127C9.66016 17.6885 9.1748 17.0303 8.92285 16.1528L11.1064 15.5791C11.2002 15.9243 11.3955 16.2183 11.6943 16.4609C11.9932 16.6943 12.3574 16.811 12.7861 16.811C13.1689 16.811 13.5049 16.7085 13.7949 16.5029C14.084 16.2979 14.2285 15.9805 14.2285 15.5513C14.2285 15.0845 14.0322 14.7529 13.6406 14.5571C13.2578 14.3516 12.7822 14.249 12.2129 14.249L11.583 14.249L11.583 12.5269L12.2686 12.5269C13.4258 12.5269 14.0049 12.1353 14.0049 11.3511C14.0049 11.0151 13.8828 10.749 13.6406 10.5532C13.3975 10.3569 13.1035 10.2593 12.7588 10.2593C12.4229 10.2593 12.1289 10.3618 11.877 10.5669C11.6338 10.7632 11.4756 11.0288 11.4004 11.3652L9.2168 10.8608C9.4502 10.0586 9.90723 9.4375 10.5889 8.99902C11.2695 8.56055 12.0449 8.34082 12.9131 8.34082C13.8643 8.34082 14.6816 8.5835 15.3623 9.06885C16.0537 9.5542 16.3984 10.2451 16.3984 11.1411C16.3984 11.6729 16.2441 12.1353 15.9365 12.5269C15.6289 12.9097 15.2275 13.1665 14.7324 13.2969L14.7324 13.3389C15.293 13.4697 15.75 13.7495 16.1045 14.1792C16.459 14.5991 16.6367 15.0845 16.6367 15.6353Z" fill="rgb(8.14583,38.3775,42.5)" fill-rule="nonzero" />
</svg>
