<svg viewBox="0 0 27 27" xmlns="http://www.w3.org/2000/svg" xmlns:xlink="http://www.w3.org/1999/xlink" width="27.000000" height="27.000000" fill="none" customFrame="#000000">
	<path id="Форма 7" d="M0 13.5C0 6.04395 6.04395 0 13.5 0C20.9561 0 27 6.04395 27 13.5C27 20.9561 20.9561 27 13.5 27C6.04395 27 0 20.9561 0 13.5Z" fill="rgb(74,188,236)" fill-rule="evenodd" />
	<path id="Форма 7" d="M16.5947 18.519L9.42676 18.519L9.42676 16.5591L13.291 13.0591C13.832 12.5459 14.1025 12.0371 14.1025 11.5332C14.1025 11.1782 13.9902 10.8936 13.7666 10.6792C13.543 10.4551 13.2441 10.3433 12.8711 10.3433C12.4883 10.3433 12.1709 10.4829 11.9189 10.7632C11.667 11.0337 11.5176 11.3931 11.4707 11.8408L9.2168 11.5332C9.32812 10.5532 9.73926 9.77832 10.4482 9.20898C11.1582 8.63037 12.0068 8.34082 12.9971 8.34082C13.9863 8.34082 14.8311 8.60254 15.5303 9.125C16.2305 9.64795 16.5811 10.3989 16.5811 11.3789C16.5811 12.0137 16.4316 12.5552 16.1328 13.0029C15.8438 13.4512 15.4141 13.9272 14.8447 14.4312L12.5488 16.4751L16.5947 16.4751L16.5947 18.519Z" fill="rgb(74,188,236)" fill-rule="nonzero" />
	<path id="Форма 7" d="M16.5947 18.519L9.42676 18.519L9.42676 16.5591L13.291 13.0591C13.832 12.5459 14.1025 12.0371 14.1025 11.5332C14.1025 11.1782 13.9902 10.8936 13.7666 10.6792C13.543 10.4551 13.2441 10.3433 12.8711 10.3433C12.4883 10.3433 12.1709 10.4829 11.9189 10.7632C11.667 11.0337 11.5176 11.3931 11.4707 11.8408L9.2168 11.5332C9.32812 10.5532 9.73926 9.77832 10.4482 9.20898C11.1582 8.63037 12.0068 8.34082 12.9971 8.34082C13.9863 8.34082 14.8311 8.60254 15.5303 9.125C16.2305 9.64795 16.5811 10.3989 16.5811 11.3789C16.5811 12.0137 16.4316 12.5552 16.1328 13.0029C15.8438 13.4512 15.4141 13.9272 14.8447 14.4312L12.5488 16.4751L16.5947 16.4751L16.5947 18.519Z" fill="rgb(8.14583,38.3775,42.5)" fill-rule="nonzero" />
</svg>
