<svg viewBox="0 0 27 27" xmlns="http://www.w3.org/2000/svg" xmlns:xlink="http://www.w3.org/1999/xlink" width="27.000000" height="27.000000" fill="none" customFrame="#000000">
	<path id="Форма 6" d="M0 13.5C0 6.04395 6.04395 0 13.5 0C20.9561 0 27 6.04395 27 13.5C27 20.9561 20.9561 27 13.5 27C6.04395 27 0 20.9561 0 13.5Z" fill="rgb(74,188,236)" fill-rule="evenodd" />
	<path id="Форма 6" d="M17.043 16.5869L15.6846 16.5869L15.6846 18.519L13.4863 18.519L13.4863 16.5869L8.82422 16.5869L8.82422 14.6133L12.8564 8.60693L15.6709 8.60693L15.6709 14.6831L17.043 14.6831L17.043 16.5869ZM13.501 14.6831L13.501 11.0151L13.459 11.0151L11.1064 14.6831L13.501 14.6831Z" fill="rgb(74,188,236)" fill-rule="nonzero" />
	<path id="Форма 6" d="M17.043 16.5869L15.6846 16.5869L15.6846 18.519L13.4863 18.519L13.4863 16.5869L8.82422 16.5869L8.82422 14.6133L12.8564 8.60693L15.6709 8.60693L15.6709 14.6831L17.043 14.6831L17.043 16.5869ZM13.501 14.6831L13.501 11.0151L13.459 11.0151L11.1064 14.6831L13.501 14.6831Z" fill="rgb(8.14583,38.3775,42.5)" fill-rule="nonzero" />
</svg>
