<svg viewBox="0 0 21 20" xmlns="http://www.w3.org/2000/svg" xmlns:xlink="http://www.w3.org/1999/xlink" width="21.000000" height="20.000000" fill="none" customFrame="#000000">
	<path id="Vector" d="M16 20L6 20L6 7L13 0L14.25 1.25C14.3667 1.36667 14.4627 1.525 14.538 1.725C14.6133 1.925 14.6507 2.11667 14.65 2.3L14.65 2.65L13.55 7L19 7C19.5333 7 20 7.2 20.4 7.6C20.8 8 21 8.46667 21 9L21 11C21 11.1167 20.9877 11.2417 20.963 11.375C20.9383 11.5083 20.9007 11.6333 20.85 11.75L17.85 18.8C17.7 19.1333 17.45 19.4167 17.1 19.65C16.75 19.8833 16.3833 20 16 20ZM4 7L4 20L0 20L0 7L4 7Z" fill="rgb(247.988,251.746,255)" fill-rule="nonzero" />
</svg>
