<svg viewBox="0 0 44 44" xmlns="http://www.w3.org/2000/svg" xmlns:xlink="http://www.w3.org/1999/xlink" width="44.000000" height="44.000000" fill="none" customFrame="#000000">
	<defs>
		<linearGradient id="paint_linear_7" x1="49.6410446" x2="-0.0195846558" y1="0" y2="43.9974976" gradientUnits="userSpaceOnUse">
			<stop stop-color="rgb(58.5703,118.292,143.438)" offset="0.25" stop-opacity="1" />
			<stop stop-color="rgb(61.625,197.704,255)" offset="0.536458313" stop-opacity="1" />
			<stop stop-color="rgb(58.5703,118.292,143.438)" offset="0.817708313" stop-opacity="1" />
		</linearGradient>
	</defs>
	<path id="Vector" d="M16 0L16 1L12 1L12 44L16 44L16 43L17 43L17 44L18 44L18 43L19 43L19 44L20 44L20 43L21 43L21 44L22 44L22 43L23 43L23 44L24 44L24 43L25 43L25 44L26 44L26 43L27 43L27 44L31 44L31 1L27 1L27 0L16 0ZM10 4.16797L0 8.33203L0 44L4 44L4 42L5 42L5 44L6 44L6 42L7 42L7 44L8 44L8 42L9 42L9 44L10 44L10 4.16797ZM16 5L17 5L17 6L16 6L16 5ZM18 5L19 5L19 6L18 6L18 5ZM20 5L21 5L21 6L20 6L20 5ZM22 5L23 5L23 6L22 6L22 5ZM24 5L25 5L25 6L24 6L24 5ZM26 5L27 5L27 6L26 6L26 5ZM16 7L17 7L17 8L16 8L16 7ZM18 7L19 7L19 8L18 8L18 7ZM20 7L21 7L21 8L20 8L20 7ZM22 7L23 7L23 8L22 8L22 7ZM24 7L25 7L25 8L24 8L24 7ZM26 7L27 7L27 8L26 8L26 7ZM9 8.73438L9 11L8 11L8 9.12109L9 8.73438ZM16 9L17 9L17 10L16 10L16 9ZM18 9L19 9L19 10L18 10L18 9ZM20 9L21 9L21 10L20 10L20 9ZM22 9L23 9L23 10L22 10L22 9ZM24 9L25 9L25 10L24 10L24 9ZM26 9L27 9L27 10L26 10L26 9ZM33 9L33 13L34 13L34 14L33 14L33 15L34 15L34 16L33 16L33 17L34 17L34 18L33 18L33 19L34 19L34 20L33 20L33 21L34 21L34 22L33 22L33 23L34 23L34 24L33 24L33 25L34 25L34 26L33 26L33 27L34 27L34 28L33 28L33 29L34 29L34 30L33 30L33 31L34 31L34 32L33 32L33 33L34 33L34 34L33 34L33 35L34 35L34 36L33 36L33 37L34 37L34 38L33 38L33 39L34 39L34 40L33 40L33 41L34 41L34 42L33 42L33 43L34 43L34 44L35 44L35 43L37 43L37 44L38 44L38 43L40 43L40 44L44 44L44 9L33 9ZM7 9.5L7 11L6 11L6 9.88672L7 9.5ZM5 10.2656L5 11L4 11L4 10.6523L5 10.2656ZM16 11L17 11L17 12L16 12L16 11ZM18 11L19 11L19 12L18 12L18 11ZM20 11L21 11L21 12L20 12L20 11ZM22 11L23 11L23 12L22 12L22 11ZM24 11L25 11L25 12L24 12L24 11ZM26 11L27 11L27 12L26 12L26 11ZM4 12L5 12L5 14L4 14L4 12ZM6 12L7 12L7 14L6 14L6 12ZM8 12L9 12L9 14L8 14L8 12ZM16 13L17 13L17 14L16 14L16 13ZM18 13L19 13L19 14L18 14L18 13ZM20 13L21 13L21 14L20 14L20 13ZM22 13L23 13L23 14L22 14L22 13ZM24 13L25 13L25 14L24 14L24 13ZM26 13L27 13L27 14L26 14L26 13ZM35 13L37 13L37 14L35 14L35 13ZM38 13L40 13L40 14L38 14L38 13ZM4 15L5 15L5 17L4 17L4 15ZM6 15L7 15L7 17L6 17L6 15ZM8 15L9 15L9 17L8 17L8 15ZM16 15L17 15L17 16L16 16L16 15ZM18 15L19 15L19 16L18 16L18 15ZM20 15L21 15L21 16L20 16L20 15ZM22 15L23 15L23 16L22 16L22 15ZM24 15L25 15L25 16L24 16L24 15ZM26 15L27 15L27 16L26 16L26 15ZM35 15L37 15L37 16L35 16L35 15ZM38 15L40 15L40 16L38 16L38 15ZM16 17L17 17L17 18L16 18L16 17ZM18 17L19 17L19 18L18 18L18 17ZM20 17L21 17L21 18L20 18L20 17ZM22 17L23 17L23 18L22 18L22 17ZM24 17L25 17L25 18L24 18L24 17ZM26 17L27 17L27 18L26 18L26 17ZM35 17L37 17L37 18L35 18L35 17ZM38 17L40 17L40 18L38 18L38 17ZM4 18L5 18L5 20L4 20L4 18ZM6 18L7 18L7 20L6 20L6 18ZM8 18L9 18L9 20L8 20L8 18ZM16 19L17 19L17 20L16 20L16 19ZM18 19L19 19L19 20L18 20L18 19ZM20 19L21 19L21 20L20 20L20 19ZM22 19L23 19L23 20L22 20L22 19ZM24 19L25 19L25 20L24 20L24 19ZM26 19L27 19L27 20L26 20L26 19ZM35 19L37 19L37 20L35 20L35 19ZM38 19L40 19L40 20L38 20L38 19ZM4 21L5 21L5 23L4 23L4 21ZM6 21L7 21L7 23L6 23L6 21ZM8 21L9 21L9 23L8 23L8 21ZM16 21L17 21L17 22L16 22L16 21ZM18 21L19 21L19 22L18 22L18 21ZM20 21L21 21L21 22L20 22L20 21ZM22 21L23 21L23 22L22 22L22 21ZM24 21L25 21L25 22L24 22L24 21ZM26 21L27 21L27 22L26 22L26 21ZM35 21L37 21L37 22L35 22L35 21ZM38 21L40 21L40 22L38 22L38 21ZM16 23L17 23L17 24L16 24L16 23ZM18 23L19 23L19 24L18 24L18 23ZM20 23L21 23L21 24L20 24L20 23ZM22 23L23 23L23 24L22 24L22 23ZM24 23L25 23L25 24L24 24L24 23ZM26 23L27 23L27 24L26 24L26 23ZM35 23L37 23L37 24L35 24L35 23ZM38 23L40 23L40 24L38 24L38 23ZM4 24L5 24L5 26L4 26L4 24ZM6 24L7 24L7 26L6 26L6 24ZM8 24L9 24L9 26L8 26L8 24ZM16 25L17 25L17 26L16 26L16 25ZM18 25L19 25L19 26L18 26L18 25ZM20 25L21 25L21 26L20 26L20 25ZM22 25L23 25L23 26L22 26L22 25ZM24 25L25 25L25 26L24 26L24 25ZM26 25L27 25L27 26L26 26L26 25ZM35 25L37 25L37 26L35 26L35 25ZM38 25L40 25L40 26L38 26L38 25ZM4 27L5 27L5 29L4 29L4 27ZM6 27L7 27L7 29L6 29L6 27ZM8 27L9 27L9 29L8 29L8 27ZM16 27L17 27L17 28L16 28L16 27ZM18 27L19 27L19 28L18 28L18 27ZM20 27L21 27L21 28L20 28L20 27ZM22 27L23 27L23 28L22 28L22 27ZM24 27L25 27L25 28L24 28L24 27ZM26 27L27 27L27 28L26 28L26 27ZM35 27L37 27L37 28L35 28L35 27ZM38 27L40 27L40 28L38 28L38 27ZM16 29L17 29L17 30L16 30L16 29ZM18 29L19 29L19 30L18 30L18 29ZM20 29L21 29L21 30L20 30L20 29ZM22 29L23 29L23 30L22 30L22 29ZM24 29L25 29L25 30L24 30L24 29ZM26 29L27 29L27 30L26 30L26 29ZM35 29L37 29L37 30L35 30L35 29ZM38 29L40 29L40 30L38 30L38 29ZM4 30L5 30L5 32L4 32L4 30ZM6 30L7 30L7 32L6 32L6 30ZM8 30L9 30L9 32L8 32L8 30ZM16 31L17 31L17 32L16 32L16 31ZM18 31L19 31L19 32L18 32L18 31ZM20 31L21 31L21 32L20 32L20 31ZM22 31L23 31L23 32L22 32L22 31ZM24 31L25 31L25 32L24 32L24 31ZM26 31L27 31L27 32L26 32L26 31ZM35 31L37 31L37 32L35 32L35 31ZM38 31L40 31L40 32L38 32L38 31ZM4 33L5 33L5 35L4 35L4 33ZM6 33L7 33L7 35L6 35L6 33ZM8 33L9 33L9 35L8 35L8 33ZM16 33L17 33L17 34L16 34L16 33ZM18 33L19 33L19 34L18 34L18 33ZM20 33L21 33L21 34L20 34L20 33ZM22 33L23 33L23 34L22 34L22 33ZM24 33L25 33L25 34L24 34L24 33ZM26 33L27 33L27 34L26 34L26 33ZM35 33L37 33L37 34L35 34L35 33ZM38 33L40 33L40 34L38 34L38 33ZM16 35L17 35L17 36L16 36L16 35ZM18 35L19 35L19 36L18 36L18 35ZM20 35L21 35L21 36L20 36L20 35ZM22 35L23 35L23 36L22 36L22 35ZM24 35L25 35L25 36L24 36L24 35ZM26 35L27 35L27 36L26 36L26 35ZM35 35L37 35L37 36L35 36L35 35ZM38 35L40 35L40 36L38 36L38 35ZM4 36L5 36L5 38L4 38L4 36ZM6 36L7 36L7 38L6 38L6 36ZM8 36L9 36L9 38L8 38L8 36ZM16 37L17 37L17 38L16 38L16 37ZM18 37L19 37L19 38L18 38L18 37ZM20 37L21 37L21 38L20 38L20 37ZM22 37L23 37L23 38L22 38L22 37ZM24 37L25 37L25 38L24 38L24 37ZM26 37L27 37L27 38L26 38L26 37ZM35 37L37 37L37 38L35 38L35 37ZM38 37L40 37L40 38L38 38L38 37ZM4 39L5 39L5 41L4 41L4 39ZM6 39L7 39L7 41L6 41L6 39ZM8 39L9 39L9 41L8 41L8 39ZM16 39L17 39L17 40L16 40L16 39ZM18 39L19 39L19 40L18 40L18 39ZM20 39L21 39L21 40L20 40L20 39ZM22 39L23 39L23 40L22 40L22 39ZM24 39L25 39L25 40L24 40L24 39ZM26 39L27 39L27 40L26 40L26 39ZM35 39L37 39L37 40L35 40L35 39ZM38 39L40 39L40 40L38 40L38 39ZM16 41L17 41L17 42L16 42L16 41ZM18 41L19 41L19 42L18 42L18 41ZM20 41L21 41L21 42L20 42L20 41ZM22 41L23 41L23 42L22 42L22 41ZM24 41L25 41L25 42L24 42L24 41ZM26 41L27 41L27 42L26 42L26 41ZM35 41L37 41L37 42L35 42L35 41ZM38 41L40 41L40 42L38 42L38 41Z" fill="url(#paint_linear_7)" fill-rule="nonzero" />
</svg>
