<svg viewBox="0 0 42 42" xmlns="http://www.w3.org/2000/svg" xmlns:xlink="http://www.w3.org/1999/xlink" width="42.000000" height="42.000000" fill="none" customFrame="#000000">
	<defs>
		<linearGradient id="paint_linear_4" x1="47.3846321" x2="-0.0186920166" y1="0" y2="41.9976082" gradientUnits="userSpaceOnUse">
			<stop stop-color="rgb(58.5703,118.292,143.438)" offset="0.25" stop-opacity="1" />
			<stop stop-color="rgb(61.625,197.704,255)" offset="0.536458313" stop-opacity="1" />
			<stop stop-color="rgb(58.5703,118.292,143.438)" offset="0.817708313" stop-opacity="1" />
		</linearGradient>
	</defs>
	<path id="Vector" d="M1 0C0.45 0 0 0.45 0 1L0 11C0 11.55 0.45 12 1 12L41 12C41.55 12 42 11.55 42 11L42 1C42 0.45 41.55 0 41 0L1 0ZM6 5C6.55 5 7 5.45 7 6C7 6.55 6.55 7 6 7C5.45 7 5 6.55 5 6C5 5.45 5.45 5 6 5ZM10 5C10.55 5 11 5.45 11 6C11 6.55 10.55 7 10 7C9.45 7 9 6.55 9 6C9 5.45 9.45 5 10 5ZM14 5C14.55 5 15 5.45 15 6C15 6.55 14.55 7 14 7C13.45 7 13 6.55 13 6C13 5.45 13.45 5 14 5ZM0 15L0 41C2.65169e-05 41.2652 0.105392 41.5195 0.292922 41.7071C0.480453 41.8946 0.734792 42 1 42L41 42C41.2652 42 41.5195 41.8946 41.7071 41.7071C41.8946 41.5195 42 41.2652 42 41L42 15L40 15L40 40L2 40L2 15L0 15ZM6 15C5.448 15 5 15.447 5 16L5 36C5 36.553 5.448 37 6 37L19 37C19.552 37 20 36.553 20 36L20 16C20 15.447 19.552 15 19 15L6 15ZM23 15L23 17L37 17L37 15L23 15ZM23 20L23 22L37 22L37 20L23 20ZM23 25L23 27L37 27L37 25L23 25ZM23 30L23 32L37 32L37 30L23 30ZM23 35L23 37L37 37L37 35L23 35Z" fill="url(#paint_linear_4)" fill-rule="nonzero" />
</svg>
