<svg viewBox="0 0 25 18" xmlns="http://www.w3.org/2000/svg" xmlns:xlink="http://www.w3.org/1999/xlink" width="25.000000" height="18.000000" fill="none" customFrame="#000000">
	<defs>
		<linearGradient id="paint_linear_10" x1="12.5" x2="12.5" y1="-5.5109107e-16" y2="18" gradientUnits="userSpaceOnUse">
			<stop stop-color="rgb(74,188,236)" offset="0" stop-opacity="1" />
			<stop stop-color="rgb(74,138.8,236)" offset="1" stop-opacity="1" />
		</linearGradient>
	</defs>
	<path id="Vector" d="M0 0L0 0.5L0 18L25 18L25 0L0 0ZM1 1L24 1L24 2.28125C23.7774 2.47479 14.9085 10.1857 14.1729 10.8232C13.5269 11.3831 12.8391 11.501 12.5 11.501C12.1609 11.501 11.4731 11.3831 10.8271 10.8232C10.6417 10.6625 9.31134 9.50583 8.34961 8.66992L8.33984 8.65723L8.33789 8.65918C5.48222 6.1771 1.1662 2.42576 1 2.28125L1 1ZM1 3.60254C1.87369 4.36228 4.92064 7.01119 7.54102 9.28906L1 14.457L1 3.60254ZM24 3.60254L24 14.459L17.4453 9.30078C20.0643 7.02411 23.1245 4.36386 24 3.60254ZM8.30859 9.95703C8.92647 10.4941 10.0314 11.4546 10.1729 11.5771C11.0269 12.3173 11.9391 12.499 12.5 12.499C13.0609 12.499 13.9731 12.3173 14.8271 11.5771C14.9675 11.4555 16.0663 10.4993 16.6768 9.96875L24 15.7324L24 17L1 17L1 15.7324L8.30859 9.95703Z" fill="url(#paint_linear_10)" fill-rule="nonzero" />
</svg>
