<svg viewBox="0 0 22.0088 22.0117" xmlns="http://www.w3.org/2000/svg" xmlns:xlink="http://www.w3.org/1999/xlink" width="22.008789" height="22.011719" fill="none" customFrame="#000000">
	<defs>
		<linearGradient id="paint_linear_11" x1="11.004425" x2="11.004425" y1="-6.73909524e-16" y2="22.0115547" gradientUnits="userSpaceOnUse">
			<stop stop-color="rgb(74,188,236)" offset="0" stop-opacity="1" />
			<stop stop-color="rgb(74,138.8,236)" offset="1" stop-opacity="1" />
		</linearGradient>
	</defs>
	<path id="Vector" d="M4.42051 0.00510654C4.03574 -0.0261435 3.60801 0.085185 3.21348 0.362529C2.86582 0.604716 2.11582 1.20042 1.41465 1.87425C1.06504 2.21019 0.731057 2.55979 0.473245 2.90354C0.213479 3.24729 -0.0130836 3.56175 0.000588426 4.01878C0.0142604 4.42894 0.055276 5.64183 0.928323 7.5012C1.80137 9.35862 3.49473 11.9075 6.79746 15.2121C10.1022 18.5168 12.651 20.2102 14.5084 21.0832C16.3658 21.9563 17.5807 21.9973 17.9908 22.011C18.4459 22.0246 18.7604 21.7981 19.1041 21.5383C19.4479 21.2785 19.7975 20.9465 20.1334 20.5969C20.8053 19.8957 21.401 19.1457 21.6432 18.7981C22.1959 18.011 22.1041 17.0813 21.4889 16.6496C21.1022 16.3782 17.5455 14.011 17.0104 13.6828C16.4674 13.3508 15.8424 13.5012 15.2838 13.7961C14.8443 14.0285 13.6549 14.7102 13.315 14.9055C13.0592 14.7434 12.0885 14.0969 10.0006 12.009C7.91074 9.92112 7.26621 8.95042 7.1041 8.69456C7.29942 8.35472 7.9791 7.17112 8.21348 6.72386C8.50645 6.16722 8.67051 5.53636 8.3209 4.98948C8.17442 4.75706 7.5084 3.74339 6.83653 2.72581C6.1627 1.70823 5.52403 0.743388 5.35801 0.512919L5.35801 0.510966C5.14121 0.212138 4.80332 0.0363565 4.42051 0.00510654ZM4.32871 1.02659C4.46543 1.04417 4.54746 1.09886 4.54746 1.09886C4.62754 1.21018 5.32871 2.26097 6.00059 3.27659C6.67246 4.29417 7.35801 5.33714 7.47715 5.52659C7.49668 5.55589 7.52403 5.88792 7.32871 6.25706L7.32871 6.25901C7.10801 6.67893 6.07871 8.47776 6.07871 8.47776L5.93614 8.72972L6.08262 8.97972C6.08262 8.97972 6.8502 10.2746 9.2916 12.716C11.735 15.1575 13.0299 15.927 13.0299 15.927L13.2799 16.0735L13.5318 15.9309C13.5318 15.9309 15.3268 14.9035 15.7506 14.6809C16.1197 14.4875 16.4518 14.5129 16.4908 14.5364C16.8365 14.7492 20.6783 17.302 20.9147 17.468C20.9225 17.4739 21.1314 17.7903 20.8268 18.2239L20.8248 18.2239C20.6412 18.4875 20.0397 19.2512 19.4127 19.9035C19.0982 20.2297 18.776 20.5344 18.5025 20.7395C18.2291 20.9446 17.985 21.009 18.024 21.011C17.5982 20.9973 16.6588 20.9875 14.9342 20.177C13.2096 19.3684 10.7486 17.7492 7.50449 14.5032C4.26231 11.261 2.64317 8.80003 1.83262 7.07347C1.02403 5.34886 1.01426 4.4094 1.00059 3.98558C1.00254 4.02464 1.067 3.77854 1.27207 3.50511C1.47715 3.23167 1.77989 2.90745 2.10606 2.593C2.76035 1.96604 3.52207 1.36448 3.78575 1.18089L3.78575 1.18284C4.00254 1.0305 4.192 1.01097 4.32871 1.02659Z" fill="url(#paint_linear_11)" fill-rule="nonzero" />
</svg>
