<svg viewBox="0 0 241 83" xmlns="http://www.w3.org/2000/svg" xmlns:xlink="http://www.w3.org/1999/xlink" width="241.000000" height="83.000000" fill="none" customFrame="#000000">
	<rect id="Color=ЧБ" width="241.000000" height="82.999847" x="0.000000" y="0.000000" fill="rgb(255,255,255)" fill-opacity="0" />
	<g id="logo">
		<path id="&amp;" d="M130.676 68.683C127.946 66.3332 125.31 63.8247 122.77 61.1574C120.293 58.4266 117.975 55.6322 115.816 52.7744C113.72 49.9166 111.783 47.027 110.005 44.1057C108.29 41.1209 106.829 38.1995 105.623 35.3417C103.464 37.6915 101.304 40.073 99.145 42.4863C97.0493 44.836 95.1758 47.2175 93.5246 49.6308C91.8735 51.9806 90.5398 54.3621 89.5237 56.7754C88.4441 59.1251 87.9043 61.4749 87.9043 63.8247C87.9043 66.619 88.3806 69.0322 89.3332 71.0645C90.2223 73.0332 91.4289 74.6526 92.9531 75.9228C94.4772 77.1929 96.2237 78.1138 98.1924 78.6853C100.161 79.2569 102.193 79.5427 104.289 79.5427C108.481 79.5427 112.926 78.5583 117.626 76.5896C122.325 74.6209 126.675 71.9853 130.676 68.683ZM118.864 12.1934C118.864 9.97061 118.356 8.38294 117.34 7.43034C116.387 6.41422 115.339 5.90617 114.196 5.90617C113.244 5.90617 112.227 6.2237 111.148 6.85877C110.132 7.49384 109.179 8.4147 108.29 9.62133C107.464 10.7645 106.766 12.1616 106.194 13.8128C105.623 15.464 105.337 17.2739 105.337 19.2427C105.337 22.8626 106.004 26.7047 107.337 30.7692C108.925 29.118 110.418 27.4986 111.815 25.9109C113.212 24.3232 114.418 22.7673 115.435 21.2431C116.514 19.6555 117.34 18.1313 117.911 16.6706C118.546 15.1465 118.864 13.654 118.864 12.1934ZM155.539 81.7337C155.539 81.9242 155.412 82.1147 155.158 82.3052C154.904 82.4958 154.523 82.591 154.015 82.591C150.205 81.3844 146.458 79.7014 142.774 77.5422C139.091 75.3195 135.503 72.7474 132.01 69.8261C129.597 71.6678 127.088 73.3507 124.484 74.8749C121.881 76.3991 119.213 77.701 116.482 78.7806C113.815 79.8602 111.116 80.6858 108.385 81.2574C105.718 81.8289 103.146 82.1147 100.669 82.1147C98.2559 82.1147 95.9697 81.7654 93.8104 81.0668C91.6512 80.4318 89.7777 79.4474 88.19 78.1138C86.6024 76.7166 85.364 75.0019 84.4749 72.9697C83.5223 70.9375 83.046 68.5559 83.046 65.8251C83.046 62.9038 83.7128 60.046 85.0464 57.2517C86.3801 54.3939 88.0948 51.5995 90.1905 48.8687C92.2863 46.1379 94.6043 43.4706 97.1446 40.8668C99.7483 38.263 102.289 35.7228 104.765 33.246C102.924 28.2924 102.003 23.8152 102.003 19.8142C102.003 17.4645 102.416 15.3052 103.241 13.3365C104.13 11.3678 105.242 9.68484 106.575 8.28768C107.909 6.89052 109.37 5.8109 110.957 5.04882C112.609 4.22322 114.164 3.81042 115.625 3.81042C117.34 3.81042 118.896 4.38199 120.293 5.52512C121.69 6.60474 122.389 8.41469 122.389 10.955C122.389 12.5427 121.976 14.1938 121.15 15.9085C120.388 17.6232 119.34 19.4014 118.007 21.2431C116.736 23.0213 115.212 24.8948 113.434 26.8635C111.719 28.7687 109.909 30.7374 108.004 32.7697C110.1 38.5488 113.212 44.4232 117.34 50.3929C121.531 56.2991 126.612 61.8242 132.582 66.9683C135.82 64.0469 138.424 60.8398 140.393 57.3469C142.362 53.854 143.346 50.2024 143.346 46.392C143.346 45.1218 143.155 43.8517 142.774 42.5815C142.457 41.2479 141.79 39.8507 140.774 38.3901C140.774 38.263 140.964 38.136 141.346 38.009C141.727 37.8185 142.076 37.7232 142.393 37.7232C143.282 37.7232 143.981 38.0408 144.489 38.6758C145.061 39.2474 145.473 39.946 145.728 40.7716C146.045 41.5972 146.236 42.4545 146.299 43.3436C146.426 44.1692 146.49 44.836 146.49 45.3441C146.49 49.5356 145.315 53.6 142.965 57.5375C140.679 61.4114 137.694 64.9678 134.01 68.2066C140.171 73.4777 147.125 77.7645 154.873 81.0668C155.317 81.3209 155.539 81.5431 155.539 81.7337Z" fill="rgb(208.25,208.25,208.25)" fill-rule="nonzero" />
		<path id="Wake Bake" d="M19.24 47.728C19.24 45.744 19.112 44.096 18.856 42.784C18.632 41.472 18.312 40.816 17.896 40.816C17.64 40.816 17.4 41.008 17.176 41.392C16.952 41.744 16.76 42.256 16.6 42.928C16.472 43.568 16.36 44.336 16.264 45.232C16.2 46.096 16.168 47.04 16.168 48.064C16.168 49.888 16.296 51.856 16.552 53.968C16.808 56.048 17.256 58.064 17.896 60.016C18.344 57.968 18.68 55.872 18.904 53.728C19.128 51.552 19.24 49.552 19.24 47.728ZM39.352 25.936C39.352 26.096 39.288 26.224 39.16 26.32C39.032 26.416 38.872 26.528 38.68 26.656C37.72 27.232 36.936 28.032 36.328 29.056C35.72 30.08 35.224 31.2 34.84 32.416C34.488 33.632 34.248 34.88 34.12 36.16C33.992 37.408 33.928 38.56 33.928 39.616C33.928 40.352 33.96 41.264 34.024 42.352C34.12 43.408 34.216 44.576 34.312 45.856C34.44 47.136 34.536 48.496 34.6 49.936C34.696 51.344 34.744 52.784 34.744 54.256C34.744 56.336 34.616 58.352 34.36 60.304C34.136 62.256 33.672 64 32.968 65.536C32.296 67.072 31.352 68.304 30.136 69.232C28.92 70.16 27.336 70.624 25.384 70.624C24.488 70.624 23.64 70.448 22.84 70.096C22.072 69.776 21.352 69.312 20.68 68.704C20.04 68.096 19.448 67.392 18.904 66.592C18.392 65.792 17.928 64.912 17.512 63.952C17.096 65.072 16.6 66.112 16.024 67.072C15.48 68.032 14.872 68.864 14.2 69.568C13.528 70.272 12.792 70.816 11.992 71.2C11.192 71.584 10.344 71.776 9.448 71.776C8.072 71.776 6.904 71.424 5.944 70.72C5.016 70.016 4.248 69.088 3.64 67.936C3.032 66.816 2.552 65.536 2.2 64.096C1.88 62.624 1.64 61.136 1.48 59.632C1.32 58.096 1.208 56.608 1.144 55.168C1.112 53.696 1.08 52.4 1.048 51.28C0.984 49.264 1.016 47.36 1.144 45.568C1.304 43.744 1.48 42.112 1.672 40.672C1.864 39.2 2.056 37.936 2.248 36.88C2.44 35.824 2.568 35.04 2.632 34.528C2.664 34.336 2.856 34.208 3.208 34.144C3.592 34.08 3.928 34.048 4.216 34.048C4.44 34.048 4.632 34.08 4.792 34.144C4.952 34.176 5.032 34.272 5.032 34.432C5.032 34.624 4.952 34.96 4.792 35.44C4.632 35.888 4.392 36.752 4.072 38.032C3.944 38.608 3.8 39.44 3.64 40.528C3.512 41.584 3.384 42.784 3.256 44.128C3.16 45.472 3.08 46.912 3.016 48.448C2.952 49.952 2.92 51.424 2.92 52.864C2.92 53.984 2.968 55.216 3.064 56.56C3.16 57.872 3.32 59.184 3.544 60.496C3.768 61.776 4.072 63.024 4.456 64.24C4.84 65.456 5.304 66.528 5.848 67.456C6.424 68.384 7.096 69.12 7.864 69.664C8.632 70.24 9.528 70.528 10.552 70.528C11.32 70.528 12.024 70.336 12.664 69.952C13.304 69.568 13.896 69.024 14.44 68.32C14.984 67.648 15.464 66.848 15.88 65.92C16.328 64.992 16.728 63.984 17.08 62.896C16.344 60.88 15.8 58.736 15.448 56.464C15.096 54.192 14.92 52.096 14.92 50.176C14.92 48.768 14.968 47.376 15.064 46C15.192 44.624 15.368 43.392 15.592 42.304C15.816 41.216 16.104 40.336 16.456 39.664C16.808 38.992 17.224 38.656 17.704 38.656C18.088 38.656 18.424 38.896 18.712 39.376C19.032 39.856 19.288 40.512 19.48 41.344C19.704 42.176 19.864 43.168 19.96 44.32C20.088 45.44 20.152 46.656 20.152 47.968C20.152 50.08 20.008 52.304 19.72 54.64C19.432 56.944 18.984 59.2 18.376 61.408C18.792 62.528 19.272 63.568 19.816 64.528C20.36 65.456 20.968 66.272 21.64 66.976C22.344 67.68 23.112 68.224 23.944 68.608C24.808 69.024 25.752 69.232 26.776 69.232C28.184 69.232 29.336 68.88 30.232 68.176C31.128 67.504 31.832 66.576 32.344 65.392C32.856 64.176 33.208 62.784 33.4 61.216C33.592 59.616 33.688 57.904 33.688 56.08C33.688 54.448 33.624 52.768 33.496 51.04C33.4 49.312 33.288 47.6 33.16 45.904C33.032 44.176 32.904 42.512 32.776 40.912C32.68 39.28 32.632 37.776 32.632 36.4C32.632 35.408 32.776 34.256 33.064 32.944C33.384 31.632 33.8 30.4 34.312 29.248C34.856 28.064 35.464 27.072 36.136 26.272C36.84 25.44 37.576 25.024 38.344 25.024C38.568 25.024 38.792 25.136 39.016 25.36C39.24 25.552 39.352 25.744 39.352 25.936ZM54.3396 57.808C54.3396 57.328 54.2596 56.944 54.0996 56.656C53.9396 56.336 53.6836 56.176 53.3316 56.176C52.7876 56.176 52.3716 56.448 52.0836 56.992C51.7956 57.504 51.6676 58.16 51.6996 58.96C51.7956 60.656 52.0996 62.08 52.6116 63.232C53.1556 62.496 53.5716 61.664 53.8596 60.736C54.1796 59.808 54.3396 58.832 54.3396 57.808ZM67.2996 57.76C67.0756 58.24 66.8356 58.736 66.5796 59.248C66.3236 59.728 66.0356 60.208 65.7156 60.688C64.0836 63.12 62.4356 64.928 60.7716 66.112C59.1076 67.296 57.5556 67.888 56.1156 67.888C54.2916 67.888 52.8996 67.024 51.9396 65.296C50.8196 66.416 49.5556 67.264 48.1476 67.84C46.7716 68.416 45.4116 68.704 44.0676 68.704C43.2676 68.704 42.4996 68.592 41.7636 68.368C41.0596 68.144 40.4516 67.808 39.9396 67.36C39.3956 66.88 38.9636 66.288 38.6436 65.584C38.3236 64.848 38.1636 64 38.1636 63.04C38.1636 61.888 38.4356 60.72 38.9796 59.536C39.4916 58.32 40.2116 57.232 41.1396 56.272C42.0996 55.28 43.2196 54.464 44.4996 53.824C45.7796 53.184 47.1716 52.864 48.6756 52.864C49.8916 52.864 50.8356 53.04 51.5076 53.392C52.1796 53.712 52.5156 54.016 52.5156 54.304C52.5156 54.432 52.4516 54.528 52.3236 54.592C52.1956 54.656 52.0836 54.688 51.9876 54.688C51.9556 54.656 51.9236 54.64 51.8916 54.64L51.8436 54.64C51.4596 54.288 51.0276 54.016 50.5476 53.824C50.0676 53.6 49.3636 53.488 48.4356 53.488C47.1876 53.488 46.0516 53.76 45.0276 54.304C44.0356 54.816 43.1876 55.504 42.4836 56.368C41.7796 57.2 41.2356 58.128 40.8516 59.152C40.4676 60.176 40.2756 61.184 40.2756 62.176C40.2756 64.096 40.7236 65.488 41.6196 66.352C42.5156 67.216 43.6356 67.648 44.9796 67.648C46.0676 67.648 47.2036 67.376 48.3876 66.832C49.5716 66.288 50.6276 65.52 51.5556 64.528C51.0436 63.376 50.7876 61.872 50.7876 60.016C50.7876 58.8 51.0116 57.744 51.4596 56.848C51.9076 55.952 52.5476 55.504 53.3796 55.504C54.5316 55.504 55.1076 56.176 55.1076 57.52C55.1076 58.864 54.9156 60.08 54.5316 61.168C54.1476 62.224 53.6356 63.184 52.9956 64.048C53.8916 65.712 55.1396 66.544 56.7396 66.544C57.9556 66.544 59.2516 66.032 60.6276 65.008C62.0356 63.984 63.4116 62.496 64.7556 60.544C65.0756 60.064 65.3636 59.568 65.6196 59.056C65.8756 58.544 66.1316 58.032 66.3876 57.52L67.2996 57.76L67.2996 57.76ZM73.9668 36.304C73.9668 34.48 73.6628 33.024 73.0547 31.936C72.4788 30.816 71.5027 30.256 70.1267 30.256C69.6468 30.256 69.1988 30.416 68.7828 30.736C68.3988 31.024 68.0628 31.424 67.7747 31.936C67.4867 32.448 67.2627 33.04 67.1028 33.712C66.9427 34.384 66.8627 35.104 66.8627 35.872C66.8627 37.984 66.8788 39.904 66.9108 41.632C66.9427 43.36 66.9747 44.992 67.0068 46.528C67.0707 48.064 67.1348 49.552 67.1988 50.992C67.2627 52.432 67.3268 53.904 67.3907 55.408C68.3187 54.16 69.1827 52.736 69.9827 51.136C70.7828 49.504 71.4707 47.84 72.0468 46.144C72.6547 44.416 73.1188 42.704 73.4388 41.008C73.7907 39.312 73.9668 37.744 73.9668 36.304ZM91.3428 57.76C91.1188 58.24 90.8788 58.736 90.6227 59.248C90.3988 59.76 90.1107 60.24 89.7588 60.688C87.9987 63.184 85.9987 65.152 83.7588 66.592C81.5188 68 79.2948 68.704 77.0867 68.704C75.7108 68.704 74.3988 68.384 73.1507 67.744C71.9027 67.136 70.7988 66.144 69.8388 64.768C69.7107 64.608 69.6468 64.464 69.6468 64.336C69.6468 64.048 69.8388 63.904 70.2227 63.904C70.2548 63.904 70.3668 63.936 70.5587 64C70.8148 64 71.1028 64.096 71.4228 64.288C71.7747 64.448 72.2708 64.528 72.9108 64.528C73.9027 64.528 74.8307 64.352 75.6947 64C76.5587 63.648 77.2948 63.2 77.9027 62.656C78.5427 62.08 79.0387 61.44 79.3907 60.736C79.7428 60 79.9187 59.248 79.9187 58.48C79.9187 57.52 79.6628 56.688 79.1507 55.984C78.6708 55.28 77.8388 54.928 76.6548 54.928C75.4388 54.928 74.3187 55.36 73.2948 56.224C72.2708 57.056 71.3428 58.08 70.5107 59.296C69.7107 60.48 69.0228 61.744 68.4467 63.088C67.8708 64.4 67.4388 65.552 67.1507 66.544C66.9908 67.088 66.8467 67.424 66.7188 67.552C66.5908 67.68 66.4467 67.744 66.2868 67.744C65.9348 67.744 65.7747 67.408 65.8067 66.736C65.8067 66.448 65.8227 66.096 65.8548 65.68C65.8867 65.264 65.9187 64.816 65.9508 64.336C65.9508 63.856 65.9668 63.376 65.9987 62.896C66.0307 62.384 66.0468 61.92 66.0468 61.504C66.0468 60.064 66.0147 58.416 65.9508 56.56C65.8867 54.672 65.8067 52.736 65.7107 50.752C65.6148 48.736 65.5348 46.736 65.4707 44.752C65.4068 42.768 65.3747 40.944 65.3747 39.28C65.3747 37.968 65.4707 36.704 65.6628 35.488C65.8548 34.24 66.1588 33.152 66.5748 32.224C66.9908 31.264 67.5188 30.512 68.1588 29.968C68.7988 29.392 69.5508 29.104 70.4147 29.104C71.3108 29.104 72.0628 29.264 72.6708 29.584C73.3108 29.872 73.8228 30.304 74.2067 30.88C74.5908 31.424 74.8627 32.096 75.0228 32.896C75.2148 33.664 75.3108 34.512 75.3108 35.44C75.3108 37.04 75.0867 38.8 74.6387 40.72C74.1908 42.608 73.5987 44.512 72.8627 46.432C72.1267 48.352 71.2787 50.208 70.3187 52C69.3907 53.76 68.4307 55.296 67.4388 56.608C67.5027 57.568 67.5348 58.56 67.5348 59.584C67.5667 60.608 67.6148 61.696 67.6787 62.848C68.4788 61.12 69.3587 59.632 70.3187 58.384C70.7347 57.84 71.1988 57.312 71.7107 56.8C72.2548 56.256 72.8148 55.776 73.3907 55.36C73.9987 54.944 74.6387 54.608 75.3108 54.352C76.0147 54.096 76.7507 53.968 77.5188 53.968C78.7347 53.968 79.7907 54.272 80.6868 54.88C81.5827 55.488 82.0307 56.464 82.0307 57.808C82.0307 59.088 81.7108 60.176 81.0708 61.072C80.4628 61.968 79.6947 62.72 78.7668 63.328C77.8388 63.904 76.8467 64.336 75.7907 64.624C74.7347 64.912 73.7747 65.088 72.9108 65.152C72.8467 65.152 72.8148 65.168 72.8148 65.2C72.8148 65.264 72.8627 65.36 72.9587 65.488C73.5987 66.224 74.3187 66.752 75.1188 67.072C75.9187 67.392 76.7507 67.552 77.6148 67.552C78.6708 67.552 79.7428 67.36 80.8307 66.976C81.9187 66.56 82.9587 66.032 83.9508 65.392C84.9427 64.72 85.8548 63.968 86.6868 63.136C87.5508 62.272 88.2548 61.408 88.7988 60.544C89.1188 60.064 89.4068 59.568 89.6628 59.056C89.9187 58.544 90.1748 58.032 90.4308 57.52L91.3428 57.76L91.3428 57.76ZM98.1096 54.784C98.1096 53.92 97.8856 53.216 97.4376 52.672C97.0216 52.096 96.3336 51.808 95.3736 51.808C94.8616 51.808 94.3976 51.968 93.9816 52.288C93.5656 52.608 93.2136 53.04 92.9256 53.584C92.6376 54.096 92.4136 54.704 92.2536 55.408C92.0936 56.112 92.0136 56.848 92.0136 57.616C92.0136 58.832 92.1416 59.92 92.3976 60.88C92.6856 61.808 93.0856 62.624 93.5976 63.328C94.2696 62.784 94.8776 62.16 95.4216 61.456C95.9656 60.752 96.4296 60.016 96.8136 59.248C97.2296 58.48 97.5496 57.712 97.7736 56.944C97.9976 56.176 98.1096 55.456 98.1096 54.784ZM110.254 57.76C110.03 58.24 109.79 58.736 109.534 59.248C109.31 59.728 109.022 60.208 108.67 60.688C107.102 62.928 105.31 64.624 103.294 65.776C101.31 66.896 99.4056 67.456 97.5816 67.456C96.5576 67.456 95.5976 67.28 94.7016 66.928C93.8376 66.576 93.0856 66.048 92.4456 65.344C91.8056 64.64 91.2936 63.76 90.9096 62.704C90.5256 61.648 90.3336 60.4 90.3336 58.96C90.3336 58 90.4776 57.04 90.7656 56.08C91.0536 55.12 91.4376 54.256 91.9176 53.488C92.4296 52.72 93.0056 52.096 93.6456 51.616C94.3176 51.136 95.0216 50.896 95.7576 50.896C96.9416 50.896 97.8056 51.248 98.3496 51.952C98.8936 52.624 99.1656 53.488 99.1656 54.544C99.1656 55.984 98.7176 57.552 97.8216 59.248C96.9576 60.912 95.7096 62.464 94.0776 63.904C95.2936 65.28 96.8616 65.968 98.7816 65.968C100.222 65.968 101.726 65.536 103.294 64.672C104.862 63.776 106.334 62.4 107.71 60.544C108.062 60.096 108.35 59.616 108.574 59.104C108.83 58.56 109.086 58.032 109.342 57.52L110.254 57.76L110.254 57.76ZM151.839 45.664C150.655 45.664 149.519 45.792 148.431 46.048C147.375 46.304 146.431 46.608 145.599 46.96C144.799 47.312 144.143 47.68 143.631 48.064C143.151 48.448 142.911 48.784 142.911 49.072C142.911 49.456 143.359 49.648 144.255 49.648C145.791 49.648 147.247 49.28 148.623 48.544C150.031 47.808 151.295 46.848 152.415 45.664L151.839 45.664L151.839 45.664ZM165.807 52.864C165.807 54.432 165.359 56.128 164.463 57.952C163.599 59.776 162.399 61.584 160.863 63.376C159.327 65.168 157.503 66.896 155.391 68.56C153.279 70.224 151.007 71.696 148.575 72.976C146.143 74.256 143.583 75.264 140.895 76C138.207 76.768 135.519 77.152 132.831 77.152C132.383 77.152 131.887 77.136 131.343 77.104C130.831 77.072 130.351 76.992 129.903 76.864C129.455 76.768 129.071 76.592 128.751 76.336C128.431 76.112 128.271 75.792 128.271 75.376C128.271 74.8 128.559 74.24 129.135 73.696C129.711 73.184 130.447 72.704 131.343 72.256C132.239 71.808 133.215 71.408 134.271 71.056C135.327 70.704 136.335 70.4 137.295 70.144C138.287 69.888 139.151 69.68 139.887 69.52C140.623 69.392 141.119 69.328 141.375 69.328C141.567 69.328 141.711 69.376 141.807 69.472C141.903 69.568 141.951 69.664 141.951 69.76C141.951 69.92 141.871 70 141.711 70L141.087 70C140.255 70 139.199 70.16 137.919 70.48C136.639 70.8 135.391 71.2 134.175 71.68C132.959 72.16 131.919 72.688 131.055 73.264C130.191 73.872 129.759 74.432 129.759 74.944C129.759 75.296 129.871 75.568 130.095 75.76C130.351 75.984 130.655 76.16 131.007 76.288C131.359 76.416 131.727 76.496 132.111 76.528C132.495 76.592 132.831 76.624 133.119 76.624C135.391 76.624 137.711 76.24 140.079 75.472C142.479 74.704 144.799 73.68 147.039 72.4C149.311 71.152 151.439 69.696 153.423 68.032C155.439 66.4 157.199 64.704 158.703 62.944C160.207 61.152 161.391 59.376 162.255 57.616C163.119 55.824 163.551 54.16 163.551 52.624C163.551 50.736 162.767 49.168 161.199 47.92C159.663 46.64 157.119 45.904 153.567 45.712C152.127 47.056 150.543 48.144 148.815 48.976C147.119 49.808 145.391 50.224 143.631 50.224C142.383 50.224 141.759 49.92 141.759 49.312C141.759 48.928 142.015 48.496 142.527 48.016C143.071 47.504 143.807 47.024 144.735 46.576C145.695 46.128 146.831 45.76 148.143 45.472C149.455 45.152 150.895 44.992 152.463 44.992L153.039 44.992C154.095 43.744 154.943 42.384 155.583 40.912C156.223 39.408 156.543 37.936 156.543 36.496C156.543 35.536 156.367 34.624 156.015 33.76C155.695 32.864 155.151 32.096 154.383 31.456C153.647 30.816 152.671 30.304 151.455 29.92C150.271 29.536 148.831 29.344 147.135 29.344C145.983 29.344 144.383 29.504 142.335 29.824C140.319 30.144 138.127 30.64 135.759 31.312C133.423 31.952 131.039 32.768 128.607 33.76C126.175 34.752 123.967 35.904 121.983 37.216C119.999 38.528 118.383 40.016 117.135 41.68C115.887 43.344 115.263 45.184 115.263 47.2C115.263 47.456 115.215 47.68 115.119 47.872C115.023 48.032 114.927 48.112 114.831 48.112C114.703 48.112 114.607 47.984 114.543 47.728C114.447 47.44 114.399 46.976 114.399 46.336C114.687 44.256 115.535 42.368 116.943 40.672C118.351 38.976 120.095 37.472 122.175 36.16C124.223 34.816 126.479 33.664 128.943 32.704C131.407 31.744 133.839 30.96 136.239 30.352C138.671 29.712 140.927 29.248 143.007 28.96C145.119 28.64 146.847 28.48 148.191 28.48C150.143 28.48 151.791 28.672 153.135 29.056C154.511 29.408 155.631 29.904 156.495 30.544C157.359 31.152 157.983 31.888 158.367 32.752C158.751 33.616 158.943 34.528 158.943 35.488C158.943 37.056 158.511 38.688 157.647 40.384C156.815 42.048 155.679 43.6 154.239 45.04C156.287 45.136 158.047 45.408 159.519 45.856C160.991 46.272 162.191 46.832 163.119 47.536C164.047 48.208 164.719 49.008 165.135 49.936C165.583 50.832 165.807 51.808 165.807 52.864ZM140.367 65.488C140.367 65.936 140.335 66.256 140.271 66.448C140.207 66.64 140.031 66.736 139.743 66.736C139.103 66.8 138.783 66.16 138.783 64.816C138.751 60.4 138.703 56.368 138.639 52.72C138.607 49.072 138.559 45.92 138.495 43.264C138.463 40.576 138.431 38.448 138.399 36.88C138.367 35.312 138.351 34.416 138.351 34.192C138.351 33.936 138.431 33.76 138.591 33.664C138.751 33.568 138.943 33.488 139.167 33.424C139.423 33.424 139.615 33.504 139.743 33.664C139.903 33.824 139.983 34.016 139.983 34.24C139.983 36.8 139.999 39.44 140.031 42.16C140.063 44.848 140.095 47.536 140.127 50.224C140.191 52.912 140.239 55.552 140.271 58.144C140.335 60.736 140.367 63.184 140.367 65.488ZM184.465 57.808C184.465 57.328 184.385 56.944 184.225 56.656C184.065 56.336 183.809 56.176 183.457 56.176C182.913 56.176 182.497 56.448 182.209 56.992C181.921 57.504 181.793 58.16 181.825 58.96C181.921 60.656 182.225 62.08 182.737 63.232C183.281 62.496 183.697 61.664 183.985 60.736C184.305 59.808 184.465 58.832 184.465 57.808ZM197.425 57.76C197.201 58.24 196.961 58.736 196.705 59.248C196.449 59.728 196.161 60.208 195.841 60.688C194.209 63.12 192.561 64.928 190.897 66.112C189.233 67.296 187.681 67.888 186.241 67.888C184.417 67.888 183.025 67.024 182.065 65.296C180.945 66.416 179.681 67.264 178.273 67.84C176.897 68.416 175.537 68.704 174.193 68.704C173.393 68.704 172.625 68.592 171.889 68.368C171.185 68.144 170.577 67.808 170.065 67.36C169.521 66.88 169.089 66.288 168.769 65.584C168.449 64.848 168.289 64 168.289 63.04C168.289 61.888 168.561 60.72 169.105 59.536C169.617 58.32 170.337 57.232 171.265 56.272C172.225 55.28 173.345 54.464 174.625 53.824C175.905 53.184 177.297 52.864 178.801 52.864C180.017 52.864 180.961 53.04 181.633 53.392C182.305 53.712 182.641 54.016 182.641 54.304C182.641 54.432 182.577 54.528 182.449 54.592C182.321 54.656 182.209 54.688 182.113 54.688C182.081 54.656 182.049 54.64 182.017 54.64L181.969 54.64C181.585 54.288 181.153 54.016 180.673 53.824C180.193 53.6 179.489 53.488 178.561 53.488C177.313 53.488 176.177 53.76 175.153 54.304C174.161 54.816 173.313 55.504 172.609 56.368C171.905 57.2 171.361 58.128 170.977 59.152C170.593 60.176 170.401 61.184 170.401 62.176C170.401 64.096 170.849 65.488 171.745 66.352C172.641 67.216 173.761 67.648 175.105 67.648C176.193 67.648 177.329 67.376 178.513 66.832C179.697 66.288 180.753 65.52 181.681 64.528C181.169 63.376 180.913 61.872 180.913 60.016C180.913 58.8 181.137 57.744 181.585 56.848C182.033 55.952 182.673 55.504 183.505 55.504C184.657 55.504 185.233 56.176 185.233 57.52C185.233 58.864 185.041 60.08 184.657 61.168C184.273 62.224 183.761 63.184 183.121 64.048C184.017 65.712 185.265 66.544 186.865 66.544C188.081 66.544 189.377 66.032 190.753 65.008C192.161 63.984 193.537 62.496 194.881 60.544C195.201 60.064 195.489 59.568 195.745 59.056C196.001 58.544 196.257 58.032 196.513 57.52L197.425 57.76L197.425 57.76ZM204.092 36.304C204.092 34.48 203.788 33.024 203.18 31.936C202.604 30.816 201.628 30.256 200.252 30.256C199.772 30.256 199.324 30.416 198.908 30.736C198.524 31.024 198.188 31.424 197.9 31.936C197.612 32.448 197.388 33.04 197.228 33.712C197.068 34.384 196.988 35.104 196.988 35.872C196.988 37.984 197.004 39.904 197.036 41.632C197.068 43.36 197.1 44.992 197.132 46.528C197.196 48.064 197.26 49.552 197.324 50.992C197.388 52.432 197.452 53.904 197.516 55.408C198.444 54.16 199.308 52.736 200.108 51.136C200.908 49.504 201.596 47.84 202.172 46.144C202.78 44.416 203.244 42.704 203.564 41.008C203.916 39.312 204.092 37.744 204.092 36.304ZM221.468 57.76C221.244 58.24 221.004 58.736 220.748 59.248C220.524 59.76 220.236 60.24 219.884 60.688C218.124 63.184 216.124 65.152 213.884 66.592C211.644 68 209.42 68.704 207.212 68.704C205.836 68.704 204.524 68.384 203.276 67.744C202.028 67.136 200.924 66.144 199.964 64.768C199.836 64.608 199.772 64.464 199.772 64.336C199.772 64.048 199.964 63.904 200.348 63.904C200.38 63.904 200.492 63.936 200.684 64C200.94 64 201.228 64.096 201.548 64.288C201.9 64.448 202.396 64.528 203.036 64.528C204.028 64.528 204.956 64.352 205.82 64C206.684 63.648 207.42 63.2 208.028 62.656C208.668 62.08 209.164 61.44 209.516 60.736C209.868 60 210.044 59.248 210.044 58.48C210.044 57.52 209.788 56.688 209.276 55.984C208.796 55.28 207.964 54.928 206.78 54.928C205.564 54.928 204.444 55.36 203.42 56.224C202.396 57.056 201.468 58.08 200.636 59.296C199.836 60.48 199.148 61.744 198.572 63.088C197.996 64.4 197.564 65.552 197.276 66.544C197.116 67.088 196.972 67.424 196.844 67.552C196.716 67.68 196.572 67.744 196.412 67.744C196.06 67.744 195.9 67.408 195.932 66.736C195.932 66.448 195.948 66.096 195.98 65.68C196.012 65.264 196.044 64.816 196.076 64.336C196.076 63.856 196.092 63.376 196.124 62.896C196.156 62.384 196.172 61.92 196.172 61.504C196.172 60.064 196.14 58.416 196.076 56.56C196.012 54.672 195.932 52.736 195.836 50.752C195.74 48.736 195.66 46.736 195.596 44.752C195.532 42.768 195.5 40.944 195.5 39.28C195.5 37.968 195.596 36.704 195.788 35.488C195.98 34.24 196.284 33.152 196.7 32.224C197.116 31.264 197.644 30.512 198.284 29.968C198.924 29.392 199.676 29.104 200.54 29.104C201.436 29.104 202.188 29.264 202.796 29.584C203.436 29.872 203.948 30.304 204.332 30.88C204.716 31.424 204.988 32.096 205.148 32.896C205.34 33.664 205.436 34.512 205.436 35.44C205.436 37.04 205.212 38.8 204.764 40.72C204.316 42.608 203.724 44.512 202.988 46.432C202.252 48.352 201.404 50.208 200.444 52C199.516 53.76 198.556 55.296 197.564 56.608C197.628 57.568 197.66 58.56 197.66 59.584C197.692 60.608 197.74 61.696 197.804 62.848C198.604 61.12 199.484 59.632 200.444 58.384C200.86 57.84 201.324 57.312 201.836 56.8C202.38 56.256 202.94 55.776 203.516 55.36C204.124 54.944 204.764 54.608 205.436 54.352C206.14 54.096 206.876 53.968 207.644 53.968C208.86 53.968 209.916 54.272 210.812 54.88C211.708 55.488 212.156 56.464 212.156 57.808C212.156 59.088 211.836 60.176 211.196 61.072C210.588 61.968 209.82 62.72 208.892 63.328C207.964 63.904 206.972 64.336 205.916 64.624C204.86 64.912 203.9 65.088 203.036 65.152C202.972 65.152 202.94 65.168 202.94 65.2C202.94 65.264 202.988 65.36 203.084 65.488C203.724 66.224 204.444 66.752 205.244 67.072C206.044 67.392 206.876 67.552 207.74 67.552C208.796 67.552 209.868 67.36 210.956 66.976C212.044 66.56 213.084 66.032 214.076 65.392C215.068 64.72 215.98 63.968 216.812 63.136C217.676 62.272 218.38 61.408 218.924 60.544C219.244 60.064 219.532 59.568 219.788 59.056C220.044 58.544 220.3 58.032 220.556 57.52L221.468 57.76L221.468 57.76ZM228.235 54.784C228.235 53.92 228.011 53.216 227.563 52.672C227.147 52.096 226.459 51.808 225.499 51.808C224.987 51.808 224.523 51.968 224.107 52.288C223.691 52.608 223.339 53.04 223.051 53.584C222.763 54.096 222.539 54.704 222.379 55.408C222.219 56.112 222.139 56.848 222.139 57.616C222.139 58.832 222.267 59.92 222.523 60.88C222.811 61.808 223.211 62.624 223.723 63.328C224.395 62.784 225.003 62.16 225.547 61.456C226.091 60.752 226.555 60.016 226.939 59.248C227.355 58.48 227.675 57.712 227.899 56.944C228.123 56.176 228.235 55.456 228.235 54.784ZM240.379 57.76C240.155 58.24 239.915 58.736 239.659 59.248C239.435 59.728 239.147 60.208 238.795 60.688C237.227 62.928 235.435 64.624 233.419 65.776C231.435 66.896 229.531 67.456 227.707 67.456C226.683 67.456 225.723 67.28 224.827 66.928C223.963 66.576 223.211 66.048 222.571 65.344C221.931 64.64 221.419 63.76 221.035 62.704C220.651 61.648 220.459 60.4 220.459 58.96C220.459 58 220.603 57.04 220.891 56.08C221.179 55.12 221.563 54.256 222.043 53.488C222.555 52.72 223.131 52.096 223.771 51.616C224.443 51.136 225.147 50.896 225.883 50.896C227.067 50.896 227.931 51.248 228.475 51.952C229.019 52.624 229.291 53.488 229.291 54.544C229.291 55.984 228.843 57.552 227.947 59.248C227.083 60.912 225.835 62.464 224.203 63.904C225.419 65.28 226.987 65.968 228.907 65.968C230.347 65.968 231.851 65.536 233.419 64.672C234.987 63.776 236.459 62.4 237.835 60.544C238.187 60.096 238.475 59.616 238.699 59.104C238.955 58.56 239.211 58.032 239.467 57.52L240.379 57.76L240.379 57.76Z" fill="rgb(0,0,0)" fill-rule="nonzero" />
	</g>
</svg>
