<svg viewBox="0 0 9.59998 9.59961" xmlns="http://www.w3.org/2000/svg" xmlns:xlink="http://www.w3.org/1999/xlink" width="9.599976" height="9.599609" fill="none">
	<rect id="solar:chef-hat-heart-line-duotone" width="9.600000" height="9.600000" x="0.000000" y="0.000000" fill="rgb(255,255,255)" fill-opacity="0" />
	<g id="Group">
		<path id="Vector" d="M2 5.8336L2.3 5.8336C2.29997 5.77525 2.28293 5.71818 2.25096 5.66937C2.21899 5.62057 2.17348 5.58214 2.12 5.5588L2 5.8336ZM7.6 5.8336L7.48 5.5588C7.42652 5.58214 7.38101 5.62057 7.34904 5.66937C7.31707 5.71818 7.30003 5.77525 7.3 5.8336L7.6 5.8336ZM6.3 2.8C6.3 2.87957 6.33161 2.95587 6.38787 3.01213C6.44413 3.06839 6.52043 3.1 6.6 3.1C6.67956 3.1 6.75587 3.06839 6.81213 3.01213C6.86839 2.95587 6.9 2.87957 6.9 2.8L6.3 2.8ZM2.7 2.8C2.7 2.87957 2.73161 2.95587 2.78787 3.01213C2.84413 3.06839 2.92043 3.1 3 3.1C3.07957 3.1 3.15587 3.06839 3.21213 3.01213C3.26839 2.95587 3.3 2.87957 3.3 2.8L2.7 2.8ZM2.8 1.7C2.19 1.7 1.60499 1.94232 1.17365 2.37365C0.742321 2.80499 0.5 3.39 0.5 4L1.1 4C1.1 3.54913 1.27911 3.11673 1.59792 2.79792C1.91673 2.47911 2.34913 2.3 2.8 2.3L2.8 1.7ZM6.8 2.3C7.25087 2.3 7.68327 2.47911 8.00208 2.79792C8.32089 3.11673 8.5 3.54913 8.5 4L9.1 4C9.1 3.39 8.85768 2.80499 8.42635 2.37365C7.99501 1.94232 7.41 1.7 6.8 1.7L6.8 2.3ZM6 8.5L3.6 8.5L3.6 9.1L6 9.1L6 8.5ZM3.6 8.5C3.2144 8.5 2.9552 8.4992 2.762 8.4732C2.5776 8.4484 2.4984 8.4056 2.4464 8.3532L2.0224 8.778C2.2044 8.96 2.4312 9.034 2.6824 9.068C2.9248 9.1008 3.2312 9.1 3.6 9.1L3.6 8.5ZM1.7 7.2C1.7 7.5688 1.6992 7.8752 1.732 8.1176C1.7656 8.3688 1.84 8.5956 2.022 8.7776L2.4464 8.3536C2.3944 8.3016 2.3516 8.2224 2.3264 8.0376C2.3008 7.8448 2.3 7.5856 2.3 7.2L1.7 7.2ZM7.3 7.2C7.3 7.5856 7.2992 7.8448 7.2732 8.038C7.2484 8.2224 7.2056 8.3016 7.1532 8.3536L7.578 8.7776C7.76 8.5956 7.834 8.3688 7.868 8.1176C7.9008 7.8752 7.9 7.5688 7.9 7.2L7.3 7.2ZM6 9.1C6.3688 9.1 6.6752 9.1008 6.9176 9.068C7.1688 9.0344 7.396 8.96 7.578 8.7776L7.1536 8.3536C7.1016 8.4056 7.0224 8.4484 6.8376 8.4736C6.6448 8.4992 6.3856 8.5 6 8.5L6 9.1ZM2.8 2.3C2.8856 2.3 2.9692 2.3064 3.0512 2.3184L3.1388 1.7248C3.02663 1.70825 2.91339 1.69996 2.8 1.7L2.8 2.3ZM4.8 0.5C4.36111 0.5 3.93324 0.637459 3.57647 0.893074C3.2197 1.14869 2.95194 1.50962 2.8108 1.9252L3.3788 2.118C3.47967 1.82112 3.67098 1.56329 3.92588 1.38071C4.18077 1.19813 4.48646 1.09996 4.8 1.1L4.8 0.5ZM2.8108 1.9252C2.73721 2.14256 2.69978 2.37052 2.7 2.6L3.3 2.6C3.3 2.4308 3.328 2.2688 3.3792 2.118L2.8108 1.9252ZM6.8 1.7C6.6852 1.7 6.572 1.7084 6.4612 1.7248L6.5492 2.3184C6.63224 2.30614 6.71606 2.29999 6.8 2.3L6.8 1.7ZM4.8 1.1C5.11348 1.10005 5.41907 1.19825 5.67389 1.38083C5.9287 1.5634 6.11996 1.82119 6.2208 2.118L6.7888 1.9252C6.64768 1.50969 6.37998 1.1488 6.02329 0.89319C5.6666 0.637581 5.23882 0.500084 4.8 0.5L4.8 1.1ZM6.2208 2.118C6.272 2.2688 6.3 2.4308 6.3 2.6L6.9 2.6C6.9 2.3644 6.8608 2.1376 6.7888 1.9252L6.2212 2.118L6.2208 2.118ZM2.3 7.2L2.3 5.8336L1.7 5.8336L1.7 7.2L2.3 7.2ZM2.12 5.5588C1.81675 5.4264 1.55872 5.20839 1.37754 4.93151C1.19637 4.65462 1.09991 4.33089 1.1 4L0.5 4C0.49997 4.44759 0.630514 4.88546 0.875634 5.25996C1.12075 5.63446 1.4698 5.92932 1.88 6.1084L2.12 5.5588ZM7.3 5.8336L7.3 7.2L7.9 7.2L7.9 5.8336L7.3 5.8336ZM8.5 4C8.50009 4.33089 8.40363 4.65462 8.22246 4.93151C8.04128 5.20839 7.78325 5.4264 7.48 5.5588L7.72 6.1084C8.1302 5.92932 8.47925 5.63446 8.72437 5.25996C8.96949 4.88546 9.10003 4.44759 9.1 4L8.5 4ZM6.3 2.6L6.3 2.8L6.9 2.8L6.9 2.6L6.3 2.6ZM2.7 2.6L2.7 2.8L3.3 2.8L3.3 2.6L2.7 2.6Z" fill="rgb(48.875,43.5325,39.1815)" fill-rule="nonzero" />
		<path id="Vector" d="M4.80005 3.99783L4.59245 4.21463C4.6483 4.26817 4.72268 4.29806 4.80005 4.29806C4.87742 4.29806 4.9518 4.26817 5.00765 4.21463L4.80005 3.99783ZM4.59445 5.22543C4.42765 5.10303 4.24325 4.94943 4.10365 4.78863C3.95645 4.61823 3.90005 4.48583 3.90005 4.39983L3.30005 4.39983C3.30005 4.70783 3.47645 4.98023 3.65005 5.18103C3.83125 5.39063 4.05565 5.57423 4.23965 5.70903L4.59445 5.22543ZM3.90005 4.39983C3.90005 4.16943 4.00525 4.06943 4.09685 4.03703C4.19685 4.00183 4.38245 4.01303 4.59285 4.21463L5.00765 3.78103C4.67765 3.46503 4.26325 3.34303 3.89845 3.47103C3.52485 3.60183 3.30005 3.96103 3.30005 4.39983L3.90005 4.39983ZM5.36005 5.70943C5.54405 5.57423 5.76885 5.39063 5.95005 5.18103C6.12365 4.98023 6.30005 4.70783 6.30005 4.39983L5.70005 4.39983C5.70005 4.48583 5.64365 4.61823 5.49605 4.78863C5.35685 4.94983 5.17245 5.10303 5.00565 5.22543L5.36045 5.70943L5.36005 5.70943ZM6.30005 4.39983C6.30005 3.96103 6.07485 3.60183 5.70165 3.47103C5.33685 3.34303 4.92245 3.46543 4.59245 3.78103L5.00765 4.21463C5.21765 4.01303 5.40325 4.00183 5.50365 4.03703C5.59485 4.06903 5.70005 4.16943 5.70005 4.39983L6.30005 4.39983ZM4.24005 5.70943C4.38725 5.81743 4.55285 5.95223 4.80005 5.95223L4.80005 5.35223C4.79045 5.35223 4.78405 5.35223 4.76245 5.34063C4.70406 5.30585 4.64794 5.26737 4.59445 5.22543L4.23965 5.70943L4.24005 5.70943ZM5.00565 5.22543C4.95216 5.26737 4.89604 5.30585 4.83765 5.34063C4.81605 5.35223 4.80965 5.35223 4.80005 5.35223L4.80005 5.95223C5.04725 5.95223 5.21285 5.81743 5.36005 5.70943L5.00565 5.22543Z" opacity="0.5" fill="rgb(48.875,43.5325,39.1815)" fill-rule="nonzero" />
		<path id="Vector" d="M2 7.2002L7.6 7.2002" opacity="0.5" stroke="rgb(48.875,43.5325,39.1815)" stroke-linecap="round" stroke-linejoin="round" stroke-width="1.5" />
	</g>
</svg>
